# Alias OBJ Model File
# Exported from SketchUp, (c) 2000-2012 Trimble Navigation Limited
# File units = meters

mtllib Ninetjer_v1.mtl

g Mesh1 Component_1_1 Model

usemtl White_plaster_notexture
v 1.61943 10.3619 -32.1355
vt -81.4766 -43.1579
vn 1.38e-15 0.999601 0.0282484
v 81.4766 10.3619 -32.1355
vt -1.61943 -43.1579
v 81.4252 10.4368 -34.7845
vt -1.67075 -39.515
v 1.67075 10.4368 -34.7845
vt -81.4252 -39.515
f 1/1/1 2/2/1 3/3/1 4/4/1 

v 1.55358 10.2659 -29.5045
vt -81.5424 -46.7389
vn 8.71463e-16 0.999335 0.0364752
v 81.5424 10.2659 -29.5045
vt -1.55358 -46.7389
vt -1.61943 -43.1197
vt -81.4766 -43.1197
f 5/5/2 6/6/2 2/7/2 1/8/2 

vt -1.55358 -46.697
vn -4.28418e-17 0.998995 0.0448214
vt -81.5424 -46.697
v 1.47333 10.1488 -26.8958
vt -81.6227 -50.2866
v 81.6227 10.1488 -26.8958
vt -1.47333 -50.2866
f 6/9/3 5/10/3 7/11/3 8/12/3 

v -4.26326e-14 8 -63.61
vt 1.54105e-13 -64.5952
vn -0.824757 0.565487 -2.31788e-15
v -8.52651e-14 8 -21.9788
vt 41.6312 -64.5952
vt 36.7142 -61.0136
vt 34.1055 -60.8186
vt 31.4745 -60.6585
vt 28.8255 -60.5337
v 1.70748 10.4903 -37.447
vt 26.163 -60.4445
v 1.72953 10.5225 -40.1184
vt 23.4916 -60.3908
v 1.73689 10.5332 -42.7944
vt 20.8156 -60.3729
v 1.72953 10.5225 -45.4703
vt 18.1397 -60.3908
v 1.70748 10.4903 -48.1418
vt 15.4682 -60.4445
v 1.67075 10.4368 -50.8042
vt 12.8058 -60.5337
v 1.61943 10.3619 -53.4532
vt 10.1568 -60.6585
v 1.55358 10.2659 -56.0843
vt 7.52574 -60.8186
v 1.47333 10.1488 -58.6929
vt 4.91708 -61.0136
f 9/13/4 10/14/4 7/15/4 5/16/4 1/17/4 4/18/4 11/19/4 12/20/4 13/21/4 14/22/4 15/23/4 16/24/4 17/25/4 18/26/4 19/27/4 

vt -1.47333 -45.0636
vn -3.83058e-16 0.91632 0.400446
vt -81.6227 -45.0636
vt -83.096 -52.4402
v 83.096 8 -21.9788
vt -1.52465e-12 -52.4402
f 8/28/5 7/29/5 10/30/5 20/31/5 

v 83.096 8 -63.61
vt -1.84264e-27 1.07747e-13
vn 0.824757 0.565487 1.17526e-14
v 81.6227 10.1488 -58.6929
vt -4.91708 3.58159
v 81.5424 10.2659 -56.0843
vt -7.52574 3.77667
v 81.4766 10.3619 -53.4532
vt -10.1568 3.93673
v 81.4252 10.4368 -50.8042
vt -12.8058 4.0615
v 81.3885 10.4903 -48.1418
vt -15.4682 4.15077
v 81.3665 10.5225 -45.4703
vt -18.1397 4.2044
v 81.3591 10.5332 -42.7944
vt -20.8156 4.22228
v 81.3665 10.5225 -40.1184
vt -23.4916 4.2044
v 81.3885 10.4903 -37.447
vt -26.163 4.15077
vt -28.8255 4.0615
vt -31.4745 3.93673
vt -34.1055 3.77667
vt -36.7142 3.58159
vt -41.6312 7.54994e-13
v 83.096 8 -42.4737
vt -21.1363 -2.00468e-13
f 21/32/6 22/33/6 23/34/6 24/35/6 25/36/6 26/37/6 27/38/6 28/39/6 29/40/6 30/41/6 3/42/6 2/43/6 6/44/6 8/45/6 20/46/6 31/47/6 

vt 1.38607e-13 -2.16626e-31
vn 3.82263e-16 0.91632 -0.400446
vt 83.096 -1.29869e-16
vt 81.6227 7.37661
vt 1.47333 7.37661
f 21/48/7 9/49/7 19/50/7 22/51/7 

vt 81.5424 10.4746
vn 2.74947e-15 0.998995 -0.0448214
vt 1.55358 10.4746
vt 1.47333 6.88495
vt 81.6227 6.88495
f 18/52/8 23/53/8 22/54/8 19/55/8 

vt 1.55358 10.4521
vn 1.84593e-15 0.999335 -0.0364752
vt 81.5424 10.4521
vt 81.4766 14.0713
vt 1.61943 14.0713
f 23/56/9 18/57/9 17/58/9 24/59/9 

vt 1.61943 14.0483
vn -6.76979e-16 0.999601 -0.0282484
vt 81.4766 14.0483
vt 81.4252 17.6912
vt 1.67075 17.6912
f 24/60/10 17/61/10 16/62/10 25/63/10 

vt 1.67075 17.6675
vn 2.74143e-15 0.999798 -0.0201131
vt 81.4252 17.6675
vt 81.3885 21.3282
vt 1.70748 21.3282
f 25/64/11 16/65/11 15/66/11 26/67/11 

vt 1.70748 21.3033
vn 2.43768e-15 0.999927 -0.0120423
vt 81.3885 21.3033
vt 81.3665 24.9759
vt 1.72953 24.9759
f 26/68/12 15/69/12 14/70/12 27/71/12 

vt 1.72953 24.9497
vn -9.62588e-17 0.999992 -0.00400984
vt 81.3665 24.9497
vt 81.3591 28.6283
vt 1.73689 28.6283
f 27/72/13 14/73/13 13/74/13 28/75/13 

vt -1.73689 -28.6003
vn -3.83488e-18 0.999992 0.00400984
vt -81.3591 -28.6003
vt -81.3665 -32.2789
vt -1.72953 -32.2789
f 28/76/14 13/77/14 12/78/14 29/79/14 

vt -1.72953 -32.249
vn -1.15104e-17 0.999927 0.0120423
vt -81.3665 -32.249
vt -81.3885 -35.9216
vt -1.70748 -35.9216
f 29/80/15 12/81/15 11/82/15 30/83/15 

vt -81.4252 -39.5501
vn 4.82474e-16 0.999798 0.0201131
vt -1.67075 -39.5501
vt -1.70748 -35.8893
vt -81.3885 -35.8893
f 4/84/16 3/85/16 30/86/16 11/87/16 

g Mesh2 Model

v 52.39 5 -21.93
vt 52.39 6.87333
vn -1.12723e-15 8.50177e-15 1
v 82.0451 5 -21.93
vt 82.0451 6.87333
v 83.2 5 -21.93
vt 83.2 6.87333
v 83.2 8 -21.93
vt 83.2 10.9973
v -9.24047e-14 8 -21.93
vt -1.17125e-13 10.9973
v -9.24047e-14 5 -21.93
vt -1.17125e-13 6.87333
v 1.78513 5 -21.93
vt 1.78513 6.87333
f 32/88/17 33/89/17 34/90/17 35/91/17 36/92/17 37/93/17 38/94/17 

v 52.39 5 -8.78
vt 52.39 12.0696
vn 0 1 -0
v 82.0451 5 -8.78
vt 82.0451 12.0696
vt 82.0451 30.1464
vt 52.39 30.1464
v 52.39 5 -20.3964
vt 52.39 28.0382
f 39/95/18 40/96/18 33/97/18 32/98/18 41/99/18 

vn -1.94748e-15 0 1
v 52.39 0 -8.78
vt 52.39 0
v 82.0451 0 -8.78
vt 82.0451 0
f 40/89/19 39/88/19 42/100/19 43/101/19 

vt -20.3964 6.87333
vn -1 0 -2.38641e-14
v 52.39 0 -20.3964
vt -20.3964 0
vt -8.78 0
vt -8.78 6.87333
f 41/102/20 44/103/20 42/104/20 39/105/20 

v 1.78513 0 -20.3964
vt 1.78513 6.26931e-14
vn -6.76692e-16 2.23599e-15 1
v 6.61887 0 -20.3964
vt 6.61887 6.26931e-14
v 6.61887 1.62577 -20.3964
vt 6.61887 2.23489
v 7.8704 1.62577 -20.3964
vt 7.8704 2.23489
v 7.8704 0 -20.3964
vt 7.8704 6.26931e-14
vt 52.39 6.26931e-14
v 1.78513 5 -20.3964
f 45/106/21 46/107/21 47/108/21 48/109/21 49/110/21 44/111/21 41/88/21 50/94/21 

vt 20.3964 2.23489
vn 1 0 1.32007e-13
vt 20.3964 0
v 6.61887 0 -20.7464
vt 20.7464 0
v 6.61887 1.62577 -20.7464
vt 20.7464 2.23489
f 47/112/22 46/113/22 51/114/22 52/115/22 

v 7.49464 0 -20.7464
vt 7.49464 1.08551e-13
vn -1.43279e-14 3.80622e-15 1
v 7.8704 0 -20.7464
vt 7.8704 1.08551e-13
v 7.8704 1.62577 -20.7464
vt 6.61887 1.08551e-13
v 6.99464 0 -20.7464
vt 6.99464 1.08551e-13
v 6.99464 1.25 -20.7464
vt 6.99464 1.71833
v 7.49464 1.25 -20.7464
vt 7.49464 1.71833
f 53/116/23 54/117/23 55/109/23 52/108/23 51/118/23 56/119/23 57/120/23 58/121/23 

vn -1 0 -4.62023e-13
vt -20.3964 2.23489
vt -20.7464 2.23489
vt -20.7464 0
f 49/103/24 48/122/24 55/123/24 54/124/24 

vt -7.8704 28.0382
vn 0 -1 -0
vt -6.61887 28.0382
vt -6.61887 28.5194
vt -7.8704 28.5194
f 48/125/25 47/126/25 52/127/25 55/128/25 

v 6.99464 1.25 -21.0864
vt 21.0864 1.71833
vn 1 0 1.35889e-13
vt 20.7464 1.71833
v 6.99464 0 -21.0864
vt 21.0864 0
f 59/129/26 57/130/26 56/114/26 60/131/26 

v 7.49464 1.25 -21.0864
vt -7.49464 28.9867
vt -7.49464 28.5194
vt -6.99464 28.5194
vt -6.99464 28.9867
f 61/132/25 58/133/25 57/134/25 59/135/25 

v 7.49464 0 -21.0864
vt -21.0864 0
vn -1 0 -6.79446e-14
vt -20.7464 1.71833
vt -21.0864 1.71833
f 62/136/27 53/124/27 58/137/27 61/138/27 

usemtl Steve_Shoes2
vt 275.379 0
vn 9.24047e-14 0 1
vt 295.064 0
vt 295.064 49.2126
vt 275.379 49.2126
f 60/139/28 62/140/28 61/141/28 59/142/28 

usemtl White_plaster_notexture
vt 1.78513 30.1464
vt 1.78513 28.0382
f 32/98/18 38/143/18 50/144/18 41/99/18 

usemtl Mudbrick4
v 1.78513 5 -1.62638
vt 0.892567 1.33809
vt 0.892567 16.781
vt 0.892567 18.0427
vt -4.62023e-14 18.0427
v 0 5 -0
vt 0 0
v 83.25 5 -0
vt 41.625 0
v 83.2 5 -8.78
vt 41.6 7.22368
vt 41.0226 7.22368
v 82.0451 5 -1.62638
vt 41.0226 1.33809
f 63/145/18 50/146/18 38/147/18 37/148/18 64/149/18 65/150/18 66/151/18 40/152/18 67/153/18 

v 1.78513 0 -1.62638
vt 0.813189 0
vn 1 0 6.15375e-16
vt 10.1982 0
vt 10.1982 4.11371
vt 0.813189 4.11371
f 68/154/29 45/155/29 50/156/29 63/157/29 

v 68.709 0 -1.62638
vt -34.3545 -2.81959e-15
vn 2.24407e-16 2.10717e-15 -1
v 68.709 2.5 -1.62638
vt -34.3545 2.05686
v 67.459 2.5 -1.62638
vt -33.7295 2.05686
v 67.459 0 -1.62638
vt -33.7295 -2.81959e-15
vt -0.892567 -2.81959e-15
vt -0.892567 4.11371
vt -41.0226 4.11371
v 82.0451 0 -1.62638
vt -41.0226 -2.81959e-15
f 69/158/30 70/159/30 71/160/30 72/161/30 68/162/30 63/163/30 67/164/30 73/165/30 

usemtl FrontColor
v 68.709 2.5 -4.62023e-14
vt 3.09204e-10 98.4252
vn 1 0 1.13632e-13
v 68.709 0 -4.62023e-14
vt 3.09204e-10 0
vt 64.0307 0
vt 64.0307 98.4252
f 74/166/31 75/167/31 69/168/31 70/169/31 

usemtl Mudbrick4
vt 41.625 4.11371
vn 2.3879e-16 -2.48065e-15 1
vt 0 4.11371
v 0 0 -0
v 67.459 0 -3.46517e-14
vt 33.7295 -3.78454e-29
v 67.459 2.5 -3.46517e-14
vt 33.7295 2.05686
vt 34.3545 2.05686
vt 34.3545 -6.08102e-29
v 83.25 0 -0
vt 41.625 4.05723e-29
f 65/170/32 64/171/32 76/149/32 77/172/32 78/173/32 74/174/32 75/175/32 79/176/32 

v -9.24047e-14 0 -21.93
vt -10.965 0
vn -1 0 4.21362e-15
vt -10.965 4.11371
f 80/177/33 76/149/33 64/171/33 37/178/33 

usemtl White_plaster_notexture
v -1.27056e-13 0 -63.61
vt -63.61 2.13328e-44
vn -1 -2.09222e-31 8.31376e-16
vt -21.93 2.13328e-44
vt -21.93 6.87333
vt -21.93 10.9973
v -1.27056e-13 8 -63.61
vt -63.61 10.9973
f 81/179/34 80/180/34 37/181/34 36/182/34 82/183/34 

usemtl FrontColor
vt -3275.59 863.386
vt 3.63798e-12 863.386
vt 5.00222e-12 2504.33
v 83.2 8 -63.61
vt -3275.59 2504.33
f 35/184/25 36/185/25 82/186/25 83/187/25 

usemtl White_plaster_notexture
v 83.2 0 -63.61
vt -83.2 0
vn 6.94146e-16 0 -1
vt 1.71211e-13 0
vt 1.71211e-13 10.9973
vt -83.2 10.9973
f 84/188/35 81/189/35 82/190/35 83/191/35 

v 83.2 0 -21.93
vt 21.93 9.57169e-29
vn 1 -8.36889e-31 -3.3255e-15
vt 63.61 9.57169e-29
vt 63.61 10.9973
vt 21.93 10.9973
vt 21.93 6.87333
f 85/192/36 84/193/36 83/194/36 35/195/36 34/196/36 

usemtl Mudbrick4
v 83.2 0 -8.78
vt 4.39 0
vn 1 0 1.05405e-14
vt 10.965 0
vt 10.965 4.11371
vt 4.39 4.11371
f 86/197/37 85/198/37 34/199/37 66/200/37 

vt 41.6 18.0427
vt 41.0226 18.0427
f 34/201/18 33/202/18 40/152/18 66/151/18 

vt -0.237041 0
vn 0.999984 0 -0.00569467
vt 4.15303 0
vt 4.15303 4.11371
vt -0.237041 4.11371
f 79/203/38 86/204/38 66/205/38 65/206/38 

vn 1 0 -2.84081e-14
vt 0.813189 2.05686
vt -9.40865e-13 2.05686
vt -9.40865e-13 0
f 72/154/39 71/207/39 78/208/39 77/209/39 

usemtl FrontColor
vt -2655.87 64.0307
vt -2705.08 64.0307
vt -2705.08 1.81899e-12
vt -2655.87 1.36424e-12
f 71/210/25 70/211/25 74/212/25 78/213/25 

usemtl Mudbrick4
vt -4.39 0
vn -1 0 1.29172e-14
vt -0.813189 0
vt -0.813189 4.11371
vt -4.39 4.11371
f 43/214/40 73/215/40 67/216/40 40/217/40 

g Mesh3 Model

usemtl HesyRa3
v -1.2818 0 -6.98504e-17
vn 0 -1.10934e-18 0.0254
v -0.587127 0 -6.98504e-17
vt 1 0
v -0.587127 1.59932 -1.2326e-32
vt 1 1
v -1.2818 1.59932 -1.2326e-32
vt 0 1
f 87/149/41 88/218/41 89/219/41 90/220/41 

