# Alias OBJ Model File
# Exported from SketchUp, (c) 2000-2012 Trimble Navigation Limited
# File units = meters

mtllib Merenre_Pyramid.mtl

g Mesh1 Model

usemtl limestone
v 39.375 52.5 -39.375
vt 1550.2 723.425
vn 0.8 0.6 -1.05644e-28
v 39.8776 51.8299 -38.8724
vt 1530.41 690.448
v 39.8776 51.8299 -39.8776
vt 1569.98 690.448
f 1/1/1 2/2/1 3/3/1

vt 1550.2 2583.66
vn 1.05644e-28 0.6 0.8
v 38.8724 51.8299 -38.8724
vt 1530.41 2550.68
vt 1569.98 2550.68
f 1/4/2 4/5/2 2/6/2

vt -1550.2 2583.66
vn -0.8 0.6 -0
v 38.8724 51.8299 -39.8776
vt -1569.98 2550.68
vt -1530.41 2550.68
f 1/7/3 5/8/3 4/9/3

vt -1550.2 723.425
vn 0 0.6 -0.8
vt -1569.98 690.448
vt -1530.41 690.448
f 1/10/4 3/11/4 5/12/4

usemtl White_limestone_block
vt -19.4381 10.1802
vn 2.26955e-18 0.6 -0.8
vt -19.9407 10.1802
v 78.75 0 -78.75
vt -39.3769 -28.0175
v 0 0 -78.75
vt -0.0019122 -28.0175
f 5/13/5 3/14/5 6/15/5 7/16/5 

usemtl FrontColor
vt 1530.41 1569.98
vn 0 1 -0
vt 1530.41 1530.41
vt 1569.98 1530.41
vt 1569.98 1569.98
f 5/17/6 4/18/6 2/19/6 3/20/6 

usemtl White_limestone_block
vt -19.4362 38.1978
vn -0.8 0.6 4.5391e-19
vt -19.9388 38.1978
vt -39.375 1.58063e-17
v 0 0 -0
vt 0 0
f 4/21/7 5/22/7 7/23/7 8/24/7 

v 78.75 0 -0
vt 39.375 0
vn 0 0.6 0.8
vt 19.9388 38.1978
vt 19.4362 38.1978
f 9/25/8 2/26/8 4/27/8 8/24/8 

vt 19.8209 10.2073
vn 0.8 0.6 1.24069e-17
vt 19.3183 10.2073
vt -0.117918 -27.9905
vt 39.2571 -27.9905
f 3/28/9 2/29/9 9/30/9 6/31/9 

g Mesh2 Model

usemtl HesyRa3
v -1.65297 0 0.0292798
vn 0 -1.10934e-18 0.0254
v -0.958296 0 0.0292798
vt 1 0
v -0.958296 1.59932 0.0292798
vt 1 1
v -1.65297 1.59932 0.0292798
vt 0 1
f 10/24/10 11/32/10 12/33/10 13/34/10 

