# Alias OBJ Model File
# Exported from SketchUp, (c) 2000-2012 Trimble Navigation Limited
# File units = meters

mtllib Rest_House.mtl

g Mesh1 Model

usemtl Opaque
v 25.4 4 0.4
vt 8.46667 -0.155083
vn 0 1 -0
v 24 4 -0
vt 8 0
v 24 4 0.4
vt 8 -0.155083
f 1/1/1 2/2/1 3/3/1

v 25 4 -1
vt 8.33333 0.387707
f 2/2/1 1/1/1 4/4/1

v 25.4 4 -1
vt 8.46667 0.387707
f 4/4/1 1/1/1 5/5/1

v 25.4 0.3 0.4
vt -0.133333 0.116312
vn 1 0 -0
v 25.4 0.3 -1
vt 0.333333 0.116312
vt 0.333333 1.55083
vt -0.133333 1.55083
f 6/6/2 7/7/2 5/8/2 1/9/2 

usemtl Mudbrick
v 25.4 0 0.4
vt -0.133333 0
v 25.4 0 -1
vt 0.333333 0
f 8/10/2 9/11/2 7/7/2 6/6/2 

usemtl FrontColor
vt -1000 -15.748
vn 0 -1 -0
v 25 0 -1
vt -984.252 39.3701
vt -1000 39.3701
f 8/12/3 10/13/3 9/14/3

v 24 0 0.4
vt -944.882 -15.748
f 11/15/3 10/13/3 8/12/3

v 25 0 -21
vt -984.252 826.772
f 10/13/3 11/15/3 12/16/3

v 24 0 -0
vt -944.882 0
f 13/17/3 12/16/3 11/15/3

v 24 0 -22
vt -944.882 866.142
f 14/18/3 12/16/3 13/17/3

v 25.4 0 -22.4
vt -1000 881.89
f 14/18/3 15/19/3 12/16/3

v 24 0 -22.4
vt -944.882 881.89
f 15/19/3 14/18/3 16/20/3

usemtl Mudbrick
vt -7.33333 0
vn -1 0 -0
v 24 0.3 -22
vt -7.33333 0.116312
v 24 0.3 -22.4
vt -7.46667 0.116312
vt -7.46667 0
f 14/21/4 17/22/4 18/23/4 16/24/4 

v 1 0 -22
vt -0.333333 0
vn 0 0 -1
v 1 0.3 -22
vt -0.333333 0.116312
vt -8 0.116312
vt -8 0
f 19/25/5 20/26/5 17/27/5 14/28/5 

vt 7.33333 0.116312
vn 1 2.40637e-15 -7.15137e-32
vt 7.33333 -9.32967e-16
v 1 0 -22.4
vt 7.46667 -9.32967e-16
v 1 0.3 -22.4
vt 7.46667 0.116312
f 20/29/6 19/30/6 21/31/6 22/32/6 

usemtl FrontColor
vt -39.3701 866.142
v 0 0 -1
vt 0 39.3701
vt -39.3701 881.89
f 19/33/3 23/34/3 21/35/3

v 1 0 0.4
vt -39.3701 -15.748
f 24/36/3 23/34/3 19/33/3

v -0.4 0 0.4
vt 15.748 -15.748
f 25/37/3 23/34/3 24/36/3

v -0.4 0 -1
vt 15.748 39.3701
f 23/34/3 25/37/3 26/38/3

usemtl Mudbrick
v -0.4 0.3 -0
vt -5.13735e-35 0.116312
vn -1 -1.50398e-16 3.85301e-34
v -0.4 0.3 -1
vt -0.333333 2.33242e-17
vt 0.133333 2.33242e-17
v -0.4 0.3 0.4
vt 0.133333 0.116312
f 27/39/7 28/26/7 26/40/7 25/41/7 29/42/7 

usemtl Opaque
v -0.4 4 0.4
vt 0.133333 1.55083
v -0.4 4 -1
vt -0.333333 1.55083
vt 0 0.116312
f 30/43/4 31/44/4 28/26/4 27/45/4 29/42/4 

v 1 4 0.4
vt 0.333333 -0.155083
vt -0.133333 0.387707
vt -0.133333 -0.155083
f 32/46/1 31/47/1 30/48/1

v 0 4 -1
vt 0 0.387707
f 31/47/1 32/46/1 33/49/1

v 0 4 -21
vt 0 8.14184
f 33/49/1 32/46/1 34/50/1

v 1 4 -22
vt 0.333333 8.52955
f 34/50/1 32/46/1 35/51/1

v 1 4 -0
f 35/51/1 32/46/1 36/11/1

v 1 0.3 -0
vt 2.50742e-33 0.116312
vn 1 4.87778e-17 7.52226e-33
vt 2.50742e-33 1.55083
v 1 0.3 0.4
f 37/52/8 36/53/8 32/9/8 38/6/8 

vt 8 1.55083
vn 0 0 1
v 24 0.3 -0
vt 8 0.116312
f 2/54/9 36/8/9 37/7/9 39/55/9 

v 1.0544 4 -1.0544
vt 0.351466 0.408797
f 2/2/1 40/56/1 36/11/1

v 23.9456 4 -1.0544
vt 7.98187 0.408797
f 40/56/1 2/2/1 41/57/1

v 24 4 -22
vt 8 8.52955
f 41/57/1 2/2/1 42/58/1

v 24 4 -22.4
vt 8 8.68463
f 42/58/1 2/2/1 43/59/1

v 25 4 -21
vt 8.33333 8.14184
f 43/59/1 2/2/1 44/60/1

f 44/60/1 2/2/1 4/4/1

v 25 0.3 -1
vn 1 1.95111e-16 -4.80394e-17
v 25 0.3 -21
vt 7 0.116312
vt 7 1.55083
f 45/7/10 46/61/10 44/62/10 4/8/10 

usemtl Mudbrick
vt 7 2.33242e-14
vn 1 -2.40637e-15 -4.80394e-17
vt 0.333333 2.33242e-14
f 12/63/11 46/61/11 45/7/11 10/64/11 

vt 8.33333 0.116312
vt 8.33333 0
v 25.4 0 -21
vt 8.46667 0
v 25.4 0.3 -21
vt 8.46667 0.116312
f 46/65/9 12/66/9 47/67/9 48/68/9 

usemtl FrontColor
vt -1000 826.772
f 12/16/3 15/19/3 47/69/3

usemtl Mudbrick
v 25.4 0.3 -22.4
vt 7 0
vt 7.46667 0
f 49/32/2 48/61/2 47/70/2 15/71/2 

usemtl Opaque
v 25.4 4 -22.4
vt 7.46667 1.55083
v 25.4 4 -21
f 50/72/2 51/62/2 48/61/2 49/32/2 

vt 8.46667 8.68463
vt 8.46667 8.14184
f 50/73/1 44/60/1 51/74/1

f 43/59/1 44/60/1 50/73/1

vt -8.46667 0.116312
vt -8 1.55083
vt -8.46667 1.55083
f 49/75/5 18/27/5 43/76/5 50/77/5 

usemtl Mudbrick
vt -8.46667 0
f 15/78/5 16/28/5 18/27/5 49/75/5 

usemtl Opaque
vt -7.33333 1.55083
vt -7.46667 1.55083
f 17/22/4 42/79/4 43/80/4 18/23/4 

f 17/27/5 20/26/5 35/44/5 42/76/5 

vt 7.33333 1.55083
v 1 4 -22.4
f 35/81/2 20/29/2 22/32/2 52/72/2 

v -0.4 4 -22.4
v 0 0.3 -22.4
v -0.4 0.3 -22.4
f 53/43/5 52/44/5 22/26/5 54/45/5 55/42/5 

vt -0.133333 8.68463
vt 0.333333 8.68463
f 53/82/1 34/50/1 52/83/1

v -0.4 4 -21
vt -0.133333 8.14184
f 34/50/1 53/82/1 56/84/1

v -0.4 0.3 -21
vt -7 0.116312
vt -7 1.55083
f 53/80/4 55/23/4 57/85/4 56/86/4 

usemtl Mudbrick
v -0.4 0 -22.4
vt -7.46667 2.33242e-17
vn -1 -1.50398e-16 -0
v -0.4 0 -21
vt -7 2.33242e-17
f 58/87/12 59/88/12 57/85/12 55/23/12 

usemtl FrontColor
vt 15.748 826.772
vt 15.748 881.89
f 21/35/3 59/89/3 58/90/3

v 0 0 -21
vt 0 826.772
f 59/89/3 21/35/3 60/91/3

f 60/91/3 21/35/3 23/34/3

usemtl Mudbrick
v 0 0.3 -1
vn -1 4.69994e-18 9.38269e-20
v 0 0.3 -21
vt -7 3.5904e-36
vt -0.333333 1.70971e-37
f 61/26/13 62/85/13 60/92/13 23/93/13 

usemtl Opaque
vn -1 -3.81077e-19 9.38269e-20
f 34/86/14 62/85/14 61/26/14 33/44/14 

vt 0 1.55083
f 62/45/9 34/94/9 56/9/9 57/6/9 

usemtl Mudbrick
vt 0 0
f 60/95/9 62/45/9 57/6/9 59/10/9 

usemtl Opaque
vt 3.0089e-32 1.55083
vn 9.02671e-32 -1.95111e-16 -1
vt 3.0089e-32 0.116312
f 33/96/15 61/97/15 28/42/15 31/43/15 

usemtl Mudbrick
vt -1.1919e-32 0.116312
vn -3.57569e-32 2.40637e-15 -1
vt -1.1919e-32 -9.32967e-16
vt 0.133333 -9.32967e-16
f 61/98/16 23/99/16 26/100/16 28/42/16 

vt 0.133333 0
f 54/45/5 22/26/5 21/25/5 58/101/5 55/42/5 

usemtl Opaque
f 52/83/1 34/50/1 35/51/1

v 1.0544 4 -20.9456
vt 0.351466 8.12075
f 35/51/1 63/102/1 42/58/1

f 35/51/1 36/11/1 63/102/1

f 63/102/1 36/11/1 40/56/1

vt 6.98187 1.55083
vn 1 0 1.81465e-17
vt 0.351466 1.55083
v 1.0544 0.3 -1.0544
vt 0.351466 0.116312
v 1.0544 0.3 -20.9456
vt 6.98187 0.116312
f 63/103/17 40/104/17 64/105/17 65/106/17 

v 23.9456 4 -20.9456
vt 7.98187 8.12075
f 66/107/1 63/102/1 40/56/1 41/57/1 

f 42/58/1 63/102/1 66/107/1

vt 7.98187 1.55083
vn 1.26147e-16 9.60439e-48 1
v 23.9456 0.3 -20.9456
vt 7.98187 0.116312
f 66/108/18 63/104/18 65/105/18 67/109/18 

usemtl Mudbrick
v 1.0544 0 -20.9456
vt 0.351466 0
vn 1.26147e-16 0 1
v 23.9456 0 -20.9456
vt 7.98187 0
f 68/110/19 69/111/19 67/109/19 65/105/19 

usemtl FrontColor
v 1.0544 0 -1.0544
vt -41.5117 41.5117
vt -41.5117 824.63
vt -942.74 824.63
v 23.9456 0 -1.0544
vt -942.74 41.5117
f 70/112/3 68/113/3 69/114/3 71/115/3 

usemtl Mudbrick
vt 6.98187 0
f 70/110/17 68/116/17 65/106/17 64/105/17 

usemtl FrontColor
v 1 0 -0
vt -39.3701 0
f 72/117/3 68/113/3 70/112/3

f 19/33/3 68/113/3 72/117/3

f 68/113/3 19/33/3 14/18/3

f 68/113/3 14/18/3 69/114/3

f 69/114/3 14/18/3 71/115/3

f 13/17/3 71/115/3 14/18/3

f 13/17/3 70/112/3 71/115/3

f 70/112/3 13/17/3 72/117/3

usemtl Mudbrick
f 13/2/9 39/55/9 37/7/9 72/11/9 

v 24 0.3 0.4
f 39/45/4 13/95/4 11/101/4 73/42/4 

f 6/68/9 73/55/9 11/2/9 8/67/9 

usemtl Opaque
vt 8.46667 1.55083
f 1/118/9 3/54/9 73/55/9 6/68/9 

f 3/43/4 2/94/4 39/45/4 73/42/4 

usemtl Mudbrick
vt 0 2.33242e-16
vn 1 -6.01593e-16 -0
vt -0.133333 2.33242e-16
f 72/119/20 37/45/20 38/6/20 24/120/20 

vt -0.133333 2.33242e-17
vn -6.70279e-34 -1.50398e-16 1
vt 0.333333 2.33242e-17
f 25/121/21 24/122/21 38/7/21 29/6/21 

usemtl Opaque
f 30/9/9 29/6/9 38/7/9 32/8/9 

usemtl FrontColor
f 24/36/3 19/33/3 72/117/3

usemtl Mudbrick
vt -7.98187 0
vn 1.57683e-17 0 -1
vt -0.351466 0
vt -0.351466 0.116312
v 23.9456 0.3 -1.0544
vt -7.98187 0.116312
f 71/123/22 70/124/22 64/125/22 74/126/22 

usemtl Opaque
vt -0.351466 1.55083
vt -7.98187 1.55083
f 40/127/22 41/128/22 74/126/22 64/125/22 

vn -1 0 1.45172e-16
vt -6.98187 1.55083
vt -6.98187 0.116312
f 41/127/23 66/129/23 67/130/23 74/125/23 

f 42/58/1 66/107/1 41/57/1

usemtl Mudbrick
vt -6.98187 0
f 69/131/23 71/124/23 74/125/23 67/130/23 

usemtl Opaque
vt 8.33333 1.55083
f 44/132/9 46/65/9 48/68/9 51/118/9 

usemtl Mudbrick
vt -8.33333 2.33242e-16
vn -8.93921e-33 -6.01593e-16 -1
vt -8.33333 0.116312
vt -8.46667 2.33242e-16
f 10/133/24 45/134/24 7/75/24 9/135/24 

usemtl Opaque
vn 0 -1.21944e-15 -1
vt -8.33333 1.55083
f 45/134/25 4/136/25 5/77/25 7/75/25 

g Mesh2 Model

usemtl HesyRa3
v -2.2852 2.88765e-15 0.289657
vn 0 -1.10934e-18 0.0254
v -1.59053 2.88765e-15 0.289657
vt 1 0
v -1.59053 1.59933 0.289657
vt 1 1
v -2.2852 1.59933 0.289657
vt 0 1
f 75/95/26 76/137/26 77/138/26 78/139/26 

