# Alias OBJ Model File
# Exported from SketchUp, (c) 2000-2012 Trimble Navigation Limited
# File units = meters

mtllib Niuserre_Pyramid.mtl

g Mesh1 Model

usemtl white_limestone_block
v 65.4864 51.68 -39.9614
vt -18.3866 9.67753
vn 0.794877 0.606771 -9.2065e-16
v 104.936 0 -0.511448
vt -36.7354 -25.9809
v 104.936 0 -79.4114
vt -0.0377638 -25.9809
f 1/1/1 2/2/1 3/3/1

vt 18.0761 9.65519
vn -1.35155e-15 0.606771 0.794877
v 26.0364 0 -0.511448
vt -0.272719 -26.0032
vt 36.425 -26.0032
f 1/4/2 4/5/2 2/6/2

vt 18.3488 35.6584
vn -0.794877 0.606771 -4.84768e-16
v 26.0364 0 -79.4114
vt 7.10543e-14 -1.40332e-13
vt 36.6977 -1.59872e-13
f 1/7/3 5/8/3 4/9/3

vt -12.1099 -26.4269
vn 1.15901e-15 0.606771 -0.794877
vt -30.4588 9.23145
vt -48.8076 -26.4269
f 5/10/4 1/11/4 3/12/4

g Mesh2 Model

usemtl _3
v 7.75 10.5 -7.75
vt -305.118 513.795
vn -0.804574 0.593852 -7.76207e-15
v 1.50158e-13 0 -15.5
vt -610.236 1.45508e-14
v 0 0 -0
vt 0 0
f 6/13/5 7/14/5 8/15/5

vt -7.15173e-12 -362.39
vn -1.63491e-15 0.593852 -0.804574
vt -305.118 151.404
v 15.5 0 -15.5
vt -610.236 -362.39
f 7/16/6 6/17/6 9/18/6

vt 305.118 151.404
vn 0.804574 0.593852 -3.61791e-15
v 15.5 0 1.10813e-13
vt -7.10677e-12 -362.39
vt 610.236 -362.39
f 6/19/7 10/20/7 9/21/7

vt 610.236 1.02145e-15
vn -5.75437e-15 0.593852 0.804574
vt 305.118 513.795
f 10/22/8 6/23/8 8/15/8

g Mesh3 Model

usemtl HesyRa3
v -3.1871 0 -6.98504e-17
vn 0 -1.10934e-18 0.0254
v -2.49242 0 -6.98504e-17
vt 1 0
v -2.49242 1.59932 -1.2326e-32
vt 1 1
v -3.1871 1.59932 -1.2326e-32
vt 0 1
f 11/15/9 12/24/9 13/25/9 14/26/9 

