# Alias OBJ Model File
# Exported from SketchUp, (c) 2000-2012 Trimble Navigation Limited
# File units = meters

mtllib Raneferef_pyramid.mtl

g Mesh1 Model

usemtl Stone_gravel
v 63.75 7 -63.75
vt 63.75 69.5221
vn 0 1 -0
v 1.75 7 -63.75
vt 1.75 69.5221
v 1.75 7 -1.75
vt 1.75 1.90845
v 63.75 7 -1.75
vt 63.75 1.90845
f 1/1/1 2/2/1 3/3/1 4/4/1 

usemtl white_limeston_block
v 0 0 -65.5
vt 32.75 0
vn -1.22285e-32 0.242536 -0.970143
vt 31.875 4.22822
vt 0.875 4.22822
v 65.5 0 -65.5
vt 0 0
f 5/5/2 2/6/2 1/7/2 6/8/2 

vt -31.875 4.22822
vn -0.970143 0.242536 -0
vt -32.75 0
v 0 0 -0
vt -0.875 4.22822
f 2/9/3 5/10/3 7/8/3 3/11/3 

v 65.5 0 -0
vt 32.75 1.61166e-16
vn -1.67957e-17 0.242536 0.970143
f 8/12/4 4/6/4 3/7/4 7/8/4 

vt 32.75 -9.3092
vn 0.970143 0.242536 1.11971e-18
vt 31.875 -5.08097
vt 0.875 -5.08097
vt 3.77991e-17 -9.3092
f 6/13/5 1/14/5 4/15/5 8/16/5 

g Mesh2 Model

usemtl HesyRa3
v -1.23121 -1.80478e-16 0.0185982
vn 0 -1.10934e-18 0.0254
v -0.536538 -1.80478e-16 0.0185982
vt 1 0
v -0.536538 1.59932 0.0185982
vt 1 1
v -1.23121 1.59932 0.0185982
vt 0 1
f 9/8/6 10/17/6 11/18/6 12/19/6 

