# Alias OBJ Model File
# Exported from SketchUp, (c) 2000-2012 Trimble Navigation Limited
# File units = meters

mtllib 3338.mtl

g Mesh1 Model

usemtl White_plaster_notexture
v 0.502473 3.2481 -0.49999
vt 0.502474 0.688659
vn -7.61193e-08 1 0.000299979
v 29.4742 3.2481 -0.49999
vt 29.4742 0.688659
v 29.5249 3.2519 -13.1551
vt 29.5249 18.0852
v 0.573135 3.2519 -13.1698
vt 0.573135 18.1054
f 1/1/1 2/2/1 3/3/1 4/4/1 

v 0 0 -0
vt 0 0
vn 1.57478e-18 0.152141 0.988359
v 30.22 0 3.65194e-18
vt 30.22 -1.08341e-17
vt 29.4742 4.51765
vt 0.502473 4.51765
f 5/5/2 6/6/2 2/7/2 1/8/2 

vt 0.123058 -9.32062
vn 0.974497 0.224366 0.00396825
v 30.2756 0 -13.6551
vt 13.7783 -9.32062
vt 13.2752 -4.73339
vt 0.620007 -4.73875
f 6/9/3 7/10/3 3/11/3 2/12/3 

vt -29.5182 1.66494
vn 0.00050194 0.152081 -0.988368
vt -30.2687 -2.85795
vt -0.566447 1.66494
f 3/13/4 7/14/4 4/15/4

v 0.0756085 0 -13.6698
vt -0.0689533 -2.85434
vn 0.000481207 0.151896 -0.988396
vt -0.566723 1.66842
vt -30.269 -2.85434
f 8/16/5 4/17/5 7/18/5

vt -13.67 -2.79109e-16
vn -0.988357 0.152055 -0.00546667
vt -0.502762 4.51759
vt -13.1728 4.52287
f 8/19/6 5/5/6 1/20/6 4/21/6 

g Mesh2 Model

usemtl HesyRa3
v -1.24699 0 -6.98504e-17
vn 0 -1.10934e-18 0.0254
v -0.55231 0 -6.98504e-17
vt 1 0
v -0.55231 1.59932 -1.2326e-32
vt 1 1
v -1.24699 1.59932 -1.2326e-32
vt 0 1
f 9/5/7 10/22/7 11/23/7 12/24/7 

