# Alias OBJ Model File
# Exported from SketchUp, (c) 2000-2012 Trimble Navigation Limited
# File units = meters

mtllib LP_enclosure.mtl

g Mesh1 Model

usemtl white_limestone1
v 0 0 -25
vt -25 0
vn -0.985308 0.170787 -0
v 0 0 -0
vt 0 0
v 0.52 3 -0.52
vt -0.52 3.75022
v 0.52 3 -24.48
vt -24.48 3.75022
f 1/1/1 2/2/1 3/3/1 4/4/1 

vn -3.39746e-18 0.170787 0.985308
v 25 0 -0
vt 25 1.81336e-17
v 24.48 3 -0.52
vt 24.48 3.75022
vt 0.52 3.75022
f 2/2/2 5/5/2 6/6/2 3/7/2 

vt 1.69641e-17 -5.25898
vn 0.985308 0.170787 6.68595e-19
v 25 0 -25
vt 25 -5.25898
v 24.48 3 -24.48
vt 24.48 -1.50876
vt 0.52 -1.50876
f 5/8/3 7/9/3 8/10/3 6/11/3 

vt -25 -5.25898
vn 0 0.170787 -0.985308
vt 0 -5.25898
vt -0.52 -1.50876
v 23.02 3 -24.48
vt -23.02 -1.50876
vt -24.48 -1.50876
f 7/12/4 1/13/4 4/14/4 9/15/4 8/16/4 

v 24.4092 3.13951 -24.4092
vt -24.4092 -10.1628
vn 0 0.539543 -0.841958
vt -24.48 -10.3555
vn 0 0.452712 -0.891657
vt -23.02 -10.3555
vt -0.52 -10.3555
v 0.590831 3.13951 -24.4092
vt -0.590831 -10.1628
f 10/17/5 8/18/6 9/19/6 4/20/6 11/21/5 

v 24.4092 3.13951 -0.590831
vt 0.590831 -10.1628
vn 0.841958 0.539543 -0
vt 0.52 -10.3555
vn 0.891657 0.452712 -0
vt 24.48 -10.3555
vt 24.4092 -10.1628
f 12/22/7 6/23/8 8/24/8 10/25/7 

v 0.590831 3.13951 -0.590831
vt 0.590831 3.77745
vn 0 0.539543 0.841958
vt 0.52 3.58474
vn 0 0.452712 0.891657
vt 24.48 3.58474
vt 24.4092 3.77745
f 13/26/9 3/27/10 6/28/10 12/29/9 

vt -24.4092 3.77745
vn -0.841958 0.539543 -0
vt -24.48 3.58474
vn -0.891657 0.452712 -0
vt -0.52 3.58474
vt -0.590831 3.77745
f 11/30/11 4/31/12 3/32/12 13/33/11 

v 0.687989 3.26215 -24.312
vt -24.312 3.67565
vn -0.717859 0.696189 -0
vt -24.4092 3.48294
vt -0.590831 3.48294
v 0.687989 3.26215 -0.687989
vt -0.687989 3.67565
f 14/34/13 11/35/11 13/36/11 15/37/13 

v 24.312 3.26215 -24.312
vt -24.312 -15.4458
vn 0 0.696189 -0.717859
vt -24.4092 -15.6385
vt -0.590831 -15.6385
vt -0.687989 -15.4458
f 16/38/14 10/39/5 11/40/5 14/41/14 

v 24.312 3.26215 -0.687989
vt 0.687989 -15.4458
vn 0.717859 0.696189 -0
vt 0.590831 -15.6385
vt 24.4092 -15.6385
vt 24.312 -15.4458
f 17/42/15 12/43/7 10/44/7 16/45/15 

vt 0.687989 3.67565
vn 0 0.696189 0.717859
vt 0.590831 3.48294
vt 24.4092 3.48294
vt 24.312 3.67565
f 15/46/16 13/47/9 12/48/9 17/49/16 

v 0.807592 3.36302 -0.807592
vt 0.807592 3.43091
vn 0 0.82503 0.565089
vt 0.687989 3.2382
vt 24.312 3.2382
v 24.1924 3.36302 -0.807592
vt 24.1924 3.43091
f 18/50/17 15/51/16 17/52/16 19/53/17 

v 0.807592 3.36302 -24.1924
vt -24.1924 3.43091
vn -0.565089 0.82503 -0
vt -24.312 3.2382
vt -0.687989 3.2382
vt -0.807592 3.43091
f 20/54/18 14/55/13 15/56/13 18/57/18 

v 24.1924 3.36302 -24.1924
vt -24.1924 -20.1081
vn 0 0.82503 -0.565089
vt -24.312 -20.3008
vt -0.687989 -20.3008
vt -0.807592 -20.1081
f 21/58/19 16/59/14 14/60/14 20/61/19 

vt 0.807592 -20.1081
vn 0.565089 0.82503 -0
vt 0.687989 -20.3008
vt 24.312 -20.3008
vt 24.1924 -20.1081
f 19/62/20 17/63/15 16/64/15 21/65/20 

v 24.0551 3.43809 -0.944864
vt 0.944864 -23.9635
vn 0.389751 0.92092 -0
vt 0.807592 -24.1562
vt 24.1924 -24.1562
v 24.0551 3.43809 -24.0551
vt 24.0551 -23.9635
f 22/66/21 19/67/20 21/68/20 23/69/21 

v 0.944864 3.43809 -0.944864
vt 0.944864 3.05298
vn 0 0.92092 0.389751
vt 0.807592 2.86027
vt 24.1924 2.86027
vt 24.0551 3.05298
f 24/70/22 18/71/17 19/72/17 22/73/22 

v 0.944864 3.43809 -24.0551
vt -24.0551 3.05298
vn -0.389751 0.92092 -0
vt -24.1924 2.86027
vt -0.807592 2.86027
vt -0.944864 3.05298
f 25/74/23 20/75/18 18/76/18 24/77/23 

vt -24.0551 -23.9635
vn 0 0.92092 -0.389751
vt -24.1924 -24.1562
vt -0.807592 -24.1562
vt -0.944864 -23.9635
f 23/78/24 21/79/19 20/80/19 25/81/24 

v 23.9057 3.48437 -23.9057
vt -23.9057 -26.8579
vn 0 0.980031 -0.198846
vt -24.0551 -27.0506
vt -0.944864 -27.0506
v 1.09432 3.48437 -23.9057
vt -1.09432 -26.8579
f 26/82/25 23/83/24 25/84/24 27/85/25 

v 23.9057 3.48437 -1.09432
vt 1.09432 -26.8579
vn 0.198846 0.980031 -0
vt 0.944864 -27.0506
vt 24.0551 -27.0506
vt 23.9057 -26.8579
f 28/86/26 22/87/21 23/88/21 26/89/26 

v 1.09432 3.48437 -1.09432
vt 1.09432 2.55698
vn 0 0.980031 0.198846
vt 0.944864 2.36426
vt 24.0551 2.36426
vt 23.9057 2.55698
f 29/90/27 24/91/22 22/92/22 28/93/27 

vt -23.9057 2.55698
vn -0.198846 0.980031 -0
vt -24.0551 2.36426
vt -0.944864 2.36426
vt -1.09432 2.55698
f 27/94/28 25/95/23 24/96/23 29/97/28 

v 1.25 3.5 -23.75
vt -23.75 1.96269
vn 9.27515e-16 1 -0
vt -23.9057 1.76998
vt -1.09432 1.76998
v 1.25 3.5 -1.25
vt -1.25 1.96269
f 30/98/29 27/99/28 29/100/28 31/101/29 

v 23.75 3.5 -23.75
vt -23.75 -28.6759
vn 0 1 9.13567e-16
vt -23.9057 -28.8686
vt -1.09432 -28.8686
vt -1.25 -28.6759
f 32/102/30 26/103/25 27/104/25 30/105/30 

v 23.75 3.5 -1.25
vt 1.25 -28.6759
vn -9.20541e-16 1 -0
vt 1.09432 -28.8686
vt 23.9057 -28.8686
vt 23.75 -28.6759
f 33/106/31 28/107/26 26/108/26 32/109/31 

vt 1.25 1.96269
vn 0 1 -9.34489e-16
vt 1.09432 1.76998
vt 23.9057 1.76998
vt 23.75 1.96269
f 31/110/32 29/111/27 28/112/27 33/113/32 

v 1.40568 3.48437 -1.40568
vt -1.40568 -1.29387
vt -1.25 -1.10116
vt -23.75 -1.10116
v 23.5943 3.48437 -1.40568
vt -23.5943 -1.29387
f 34/114/25 31/115/32 33/116/32 35/117/25 

v 1.40568 3.48437 -23.5943
vt 23.5943 -1.29387
vt 23.75 -1.10116
vt 1.25 -1.10116
vt 1.40568 -1.29387
f 36/118/26 30/119/29 31/120/29 34/121/26 

v 23.5943 3.48437 -23.5943
vt 23.5943 29.3447
vt 23.75 29.5374
vt 1.25 29.5374
vt 1.40568 29.3447
f 37/122/27 32/123/30 30/124/30 36/125/27 

vt -1.40568 29.3447
vt -1.25 29.5374
vt -23.75 29.5374
vt -23.5943 29.3447
f 35/126/28 33/127/31 32/128/31 37/129/28 

v 23.4449 3.43809 -1.55514
vt -1.55514 28.8377
vt -1.40568 29.0304
vt -23.5943 29.0304
v 23.4449 3.43809 -23.4449
vt -23.4449 28.8377
f 38/130/23 35/131/28 37/132/28 39/133/23 

v 1.55514 3.43809 -1.55514
vt -1.55514 -0.577228
vt -1.40568 -0.384515
vt -23.5943 -0.384515
vt -23.4449 -0.577228
f 40/134/24 34/135/25 35/136/25 38/137/24 

v 1.55514 3.43809 -23.4449
vt 23.4449 -0.577228
vt 23.5943 -0.384515
vt 1.40568 -0.384515
vt 1.55514 -0.577228
f 41/138/21 36/139/26 34/140/26 40/141/21 

vt 23.4449 28.8377
vt 23.5943 29.0304
vt 1.40568 29.0304
vt 1.55514 28.8377
f 39/142/22 37/143/27 36/144/27 41/145/22 

v 23.3076 3.36302 -23.3076
vt 23.3076 27.1751
vt 23.4449 27.3678
vt 1.55514 27.3678
v 1.69241 3.36302 -23.3076
vt 1.69241 27.1751
f 42/146/17 39/147/22 41/148/22 43/149/17 

v 23.3076 3.36302 -1.69241
vt -1.69241 27.1751
vt -1.55514 27.3678
vt -23.4449 27.3678
vt -23.3076 27.1751
f 44/150/18 38/151/23 39/152/23 42/153/18 

v 1.69241 3.36302 -1.69241
vt -1.69241 0.158625
vt -1.55514 0.351337
vt -23.4449 0.351337
vt -23.3076 0.158625
f 45/154/19 40/155/24 38/156/24 44/157/19 

vt 23.3076 0.158625
vt 23.4449 0.351337
vt 1.55514 0.351337
vt 1.69241 0.158625
f 43/158/20 41/159/21 40/160/21 45/161/20 

v 1.81201 3.26215 -23.188
vt 23.188 0.884294
vt 23.3076 1.07701
vt 1.69241 1.07701
v 1.81201 3.26215 -1.81201
vt 1.81201 0.884294
f 46/162/15 43/163/20 45/164/20 47/165/15 

v 23.188 3.26215 -23.188
vt 23.188 24.4233
vt 23.3076 24.616
vt 1.69241 24.616
vt 1.81201 24.4233
f 48/166/16 42/167/17 43/168/17 46/169/16 

v 23.188 3.26215 -1.81201
vt -1.81201 24.4233
vt -1.69241 24.616
vt -23.3076 24.616
vt -23.188 24.4233
f 49/170/13 44/171/18 42/172/18 48/173/13 

vt -1.81201 0.884294
vt -1.69241 1.07701
vt -23.3076 1.07701
vt -23.188 0.884294
f 47/174/14 45/175/19 44/176/19 49/177/14 

v 1.90917 3.13951 -1.90917
vt -1.90917 1.5708
vt -1.81201 1.76351
vt -23.188 1.76351
v 23.0908 3.13951 -1.90917
vt -23.0908 1.5708
f 50/178/5 47/179/14 49/180/14 51/181/5 

v 1.90917 3.13951 -23.0908
vt 23.0908 1.5708
vt 23.188 1.76351
vt 1.81201 1.76351
vt 1.90917 1.5708
f 52/182/7 46/183/15 47/184/15 50/185/7 

v 23.0908 3.13951 -23.0908
vt 23.0908 20.6923
vt 23.188 20.885
vt 1.81201 20.885
vt 1.90917 20.6923
f 53/186/9 48/187/16 46/188/16 52/189/9 

vt -1.90917 20.6923
vt -1.81201 20.885
vt -23.188 20.885
vt -23.0908 20.6923
f 51/190/11 49/191/13 48/192/13 53/193/11 

v 23.02 3 -1.98
vt -1.98 16.1309
vt -1.90917 16.3236
vt -23.0908 16.3236
v 23.02 3 -23.02
vt -23.02 16.1309
f 54/194/12 51/195/11 53/196/11 55/197/12 

v 1.98 3 -1.98
vt -1.98 2.19072
vt -1.90917 2.38343
vt -23.0908 2.38343
vt -23.02 2.19072
f 56/198/6 50/199/5 51/200/5 54/201/6 

v 1.98 3 -23.02
vt 23.02 2.19072
vt 23.0908 2.38343
vt 1.90917 2.38343
vt 1.98 2.19072
f 57/202/8 52/203/7 50/204/7 56/205/8 

vt 23.02 16.1309
vt 23.0908 16.3236
vt 1.90917 16.3236
vt 1.98 16.1309
f 55/206/10 53/207/9 52/208/9 57/209/10 

v 2.5 0 -22.5
vt 2.5 4.73308
vn 0 0.170787 0.985308
v 22.5 0 -22.5
vt 22.5 4.73308
vt 23.02 8.4833
vt 1.98 8.4833
f 58/210/33 59/211/33 55/212/33 57/213/33 

vt -22.5 4.73308
vn -0.985308 0.170787 1.94996e-32
v 22.5 0 -2.5
vt -2.5 4.73308
vt -1.98 8.4833
vt -23.02 8.4833
f 59/214/34 60/215/34 54/216/34 55/217/34 

vt -22.5 -0.525898
v 2.5 0 -2.5
vt -2.5 -0.525898
vt -1.98 3.22432
vt -23.02 3.22432
f 60/218/4 61/219/4 56/220/4 54/221/4 

vt 2.5 -0.525898
vn 0.985308 0.170787 -0
vt 22.5 -0.525898
vt 23.02 3.22432
vt 1.98 3.22432
f 61/222/35 58/223/35 57/224/35 56/225/35 

g Mesh2 Model

usemtl HesyRa3
v -1.61803 0 -0.0656822
vn 0 -1.10934e-18 0.0254
v -0.923353 0 -0.0656822
vt 1 0
v -0.923353 1.59932 -0.0656822
vt 1 1
v -1.61803 1.59932 -0.0656822
vt 0 1
f 62/2/36 63/226/36 64/227/36 65/228/36 

