# Alias OBJ Model File
# Exported from SketchUp, (c) 2000-2012 Trimble Navigation Limited
# File units = meters

mtllib Lepsius29.mtl

g Mesh1 Model

usemtl white_limestone1
v 26 35 -25.8908
vt -1.40135 2.9067
vn -0.802744 0.596324 1.28387e-33
v 0 0 -51.7815
vt -2.8027 3.29237e-33
v 0 0 -0
vt 0 0
f 1/1/1 2/2/1 3/3/1

vt -1.41314 0.848148
vn -0.00337305 0.596321 -0.802739
v 52 2.70717e-16 -52
vt -2.82632 -2.05854
vt -0.0117766 -2.05854
f 1/4/2 4/5/2 2/6/2

vt 2.81452 -2.06726
vn 0.802744 0.596324 -7.2149e-19
vt 1.40135 0.839441
v 52 2.70717e-16 -4.51195e-16
vt 2.18915e-17 -2.06726
f 4/7/3 1/8/3 5/9/3

vt 2.81452 3.23979e-17
vn 0 0.594706 0.803943
vt 1.40726 2.90236
f 5/10/4 1/11/4 3/3/4

g Mesh2 Model

usemtl HesyRa3
v -1.63097 0 -0.752657
vn 0 -1.10934e-18 0.0254
v -0.936294 0 -0.752657
vt 1 0
v -0.936294 1.59932 -0.752657
vt 1 1
v -1.63097 1.59932 -0.752657
vt 0 1
f 6/3/5 7/12/5 8/13/5 9/14/5 

