# Alias OBJ Model File
# Exported from SketchUp, (c) 2000-2012 Trimble Navigation Limited
# File units = meters

mtllib Pepy1_Pyramid.mtl

g Mesh1 Model

usemtl white_limestone2
v 152.866 52.5 -141.927
vt 15.7491 16.1358
vn -7.35417e-14 0.6 0.8
v 152.363 51.8299 -141.425
vt 15.6973 16.0295
v 153.368 51.8299 -141.425
vt 15.8009 16.0295
f 1/1/1 2/2/1 3/3/1

vt -14.6221 16.9686
vn -0.8 0.6 7.35344e-14
v 152.363 51.8299 -142.43
vt -14.6739 16.8623
vt -14.5703 16.8623
f 1/4/2 4/5/2 2/6/2

vt -15.7491 -5.47641
vn 1.47083e-13 0.6 -0.8
v 153.368 51.8299 -142.43
vt -15.8009 -5.5827
vt -15.6973 -5.5827
f 1/7/3 5/8/3 4/9/3

vt 14.6221 -6.30927
vn 0.8 0.6 -3.6773e-13
vt 14.5703 -6.41556
vt 14.6739 -6.41556
f 1/10/4 3/11/4 5/12/4

usemtl White_limestone
vt -19.4381 10.1802
vn 0.8 0.6 8.52469e-16
vt -19.9407 10.1802
v 192.241 5.12949e-30 -102.552
vt -39.3769 -28.0175
v 192.241 5.12949e-30 -181.302
vt -0.0019122 -28.0175
f 5/13/5 3/14/5 6/15/5 7/16/5 

usemtl white_limestone2
vt 15.8009 18.0739
vn 0 1 -0
vt 15.6973 18.0739
vt 15.6973 17.9464
vt 15.8009 17.9464
f 5/17/6 4/18/6 2/19/6 3/20/6 

usemtl White_limestone
vt -76.1816 -25.9382
vn 3.87486e-17 0.6 -0.8
vt -76.6842 -25.9382
vt -96.1204 -64.136
v 113.491 5.12949e-30 -181.302
vt -56.7454 -64.136
f 4/21/7 5/22/7 7/23/7 8/24/7 

v 113.491 5.12949e-30 -102.552
vt -51.276 40.1476
vn -0.8 0.6 2.36366e-15
vt -70.7123 78.3453
vt -71.2148 78.3453
vt -90.651 40.1476
f 9/25/8 2/26/8 4/27/8 8/28/8 

vt 19.8209 10.2073
vn 4.66914e-15 0.6 0.8
vt 19.3183 10.2073
vt -0.117918 -27.9905
v 130.075 5.12949e-30 -102.552
vt 8.1744 -27.9905
v 175.057 5.12949e-30 -102.552
vt 30.6651 -27.9905
vt 39.2571 -27.9905
f 3/29/9 2/30/9 9/31/9 10/32/9 11/33/9 6/34/9 

usemtl white_limestone2
vt -18.0353 6.50918e-31
vn -2.05428e-15 0 -1
vt -13.4011 6.50918e-31
v 130.075 5 -102.552
vt -13.4011 0.634486
v 175.057 5 -102.552
vt -18.0353 0.634486
f 11/35/10 10/36/10 12/37/10 13/38/10 

vt -10.5655 6.50918e-31
vn -1 0 6.55541e-15
v 130.075 5.12949e-30 -67.3122
vt -6.93488 6.50918e-31
v 130.075 5 -67.3122
vt -6.93488 0.634486
vt -10.5655 0.634486
f 10/39/11 14/40/11 15/41/11 12/42/11 

vt -13.4011 1.00977e-29
vn 8.22567e-15 -1.10596e-30 -1
v 107.608 -1.15506e-14 -67.3122
vt -11.0864 -1.46574e-15
v 107.608 5 -67.3122
vt -11.0864 0.634486
f 14/43/12 16/44/12 17/45/12 15/37/12 

vt 6.93488 -1.46574e-15
vn 1 0 7.77621e-16
v 107.608 -1.15506e-14 -186.142
vt 19.1774 -1.46574e-15
v 107.608 5 -186.142
vt 19.1774 0.634486
vt 6.93488 0.634486
f 16/46/13 18/47/13 19/48/13 17/49/13 

vt 11.0864 -1.46574e-15
vn 0 0 1
v 203.168 -1.15506e-14 -186.142
vt 20.9315 -1.46574e-15
v 203.168 5 -186.142
vt 20.9315 0.634486
vt 11.0864 0.634486
f 18/50/14 20/51/14 21/52/14 19/53/14 

vt -19.1774 -1.46574e-15
vn -1 0 -7.77621e-16
v 203.168 -1.15506e-14 -67.3122
vt -6.93488 -1.46574e-15
v 203.168 5 -67.3122
vt -19.1774 0.634486
f 20/54/15 22/55/15 23/41/15 21/56/15 

vt -20.9315 -1.46574e-15
vn -1.64356e-14 0 -1
v 175.057 -1.15506e-14 -67.3122
vt -18.0353 -1.46574e-15
v 175.057 5 -67.3122
vt -20.9315 0.634486
f 22/57/16 24/58/16 25/38/16 23/59/16 

vn 1 6.34031e-31 2.62216e-15
vt 10.5655 -1.34336e-29
vt 10.5655 0.634486
f 24/46/17 11/60/17 13/61/17 25/49/17 

vt 18.0353 13.0136
v 160.366 5 -64.133
vt 16.5218 8.1383
vt 18.0353 8.54174
f 13/62/6 26/63/6 25/64/6

v 145.036 5 -64.133
vt 14.9425 8.1383
f 13/62/6 27/65/6 26/63/6

vt 13.4011 8.54174
f 13/62/6 15/66/6 27/65/6

vt 13.4011 13.0136
f 15/66/6 13/62/6 12/67/6

v 145.036 5 -38.473
vt 14.9425 4.88211
f 27/65/6 15/66/6 28/68/6

v 123.888 5 -4.53236
vt 12.7637 0.575144
f 15/66/6 29/69/6 28/68/6

v 123.888 5 -62.3724
vt 12.7637 7.91488
f 15/66/6 30/70/6 29/69/6

vt 11.0864 8.54174
f 17/71/6 30/70/6 15/66/6

v 103.088 5 -62.3724
vt 10.6207 7.91488
f 17/71/6 31/72/6 30/70/6

v 103.088 5 -190.492
vt 10.6207 24.173
f 31/72/6 17/71/6 32/73/6

vt 11.0864 23.6209
f 19/74/6 32/73/6 17/71/6

v 206.698 5 -190.492
vt 21.2951 24.173
f 32/73/6 19/74/6 33/75/6

vt 20.9315 23.6209
f 33/75/6 19/74/6 21/76/6

v 206.698 5 -62.3724
vt 21.2951 7.91488
f 21/76/6 34/77/6 33/75/6

vt 20.9315 8.54174
f 23/78/6 34/77/6 21/76/6

v 181.728 5 -62.3724
vt 18.7227 7.91488
f 23/78/6 35/79/6 34/77/6

f 35/79/6 23/78/6 25/64/6

v 181.728 5 -4.53236
vt 18.7227 0.575144
f 25/64/6 36/80/6 35/79/6

f 26/63/6 36/80/6 25/64/6

v 160.366 5 -38.473
vt 16.5218 4.88211
f 37/81/6 36/80/6 26/63/6

f 28/68/6 36/80/6 37/81/6

f 28/68/6 29/69/6 36/80/6

v 123.888 -1.15506e-14 -4.53236
vt 12.7637 -1.46574e-15
vn 1.59759e-15 0 1
v 181.728 -1.15506e-14 -4.53236
vt 18.7227 -1.46574e-15
vt 18.7227 0.634486
vt 12.7637 0.634486
f 38/82/18 39/83/18 36/84/18 29/85/18 

vt 0.466948 -1.46574e-15
vn 1 0 -1.59759e-15
v 181.728 -1.15506e-14 -62.3724
vt 6.42594 -1.46574e-15
vt 6.42594 0.634486
vt 0.466948 0.634486
f 39/86/19 40/87/19 35/88/19 36/89/19 

vn -7.40144e-15 0 1
v 206.698 -1.15506e-14 -62.3724
vt 21.2951 -1.46574e-15
vt 21.2951 0.634486
f 40/83/20 41/90/20 34/91/20 35/84/20 

vn 1 0 -7.21235e-16
v 206.698 -1.15506e-14 -190.492
vt 19.6256 -1.46574e-15
vt 19.6256 0.634486
f 41/87/21 42/92/21 33/93/21 34/88/21 

vt -21.2951 -1.46574e-15
vn -1.7837e-15 0 -1
v 103.088 -1.15506e-14 -190.492
vt -10.6207 -1.46574e-15
vt -10.6207 0.634486
vt -21.2951 0.634486
f 42/94/22 43/95/22 32/96/22 33/97/22 

vt -19.6256 -1.46574e-15
vn -1 0 -7.21235e-16
v 103.088 -1.15506e-14 -62.3724
vt -6.42594 -1.46574e-15
vt -6.42594 0.634486
vt -19.6256 0.634486
f 43/98/23 44/99/23 31/100/23 32/101/23 

vt 10.6207 -1.46574e-15
vn -8.8848e-15 0 1
v 123.888 -1.15506e-14 -62.3724
vt 10.6207 0.634486
f 44/102/24 45/82/24 30/85/24 31/103/24 

vn -1 0 3.19518e-15
vt -0.466948 -1.46574e-15
vt -0.466948 0.634486
f 45/99/25 38/104/25 29/105/25 30/100/25 

v 160.366 -2.31012e-14 -38.473
vt -16.5218 -2.93147e-15
vn -1.20554e-14 0 -1
v 145.036 -2.31012e-14 -38.473
vt -14.9425 -2.93147e-15
vt -14.9425 0.634486
vt -16.5218 0.634486
f 46/106/26 47/107/26 28/108/26 37/109/26 

vt 3.9637 -2.93147e-15
vn 1 0 1.80056e-15
v 145.036 -2.31012e-14 -64.133
vt 6.60733 -2.93147e-15
vt 6.60733 0.634486
vt 3.9637 0.634486
f 47/110/27 48/111/27 27/112/27 28/113/27 

vt 14.9425 -2.93147e-15
v 160.366 -2.31012e-14 -64.133
vt 16.5218 -2.93147e-15
vt 16.5218 0.634486
vt 14.9425 0.634486
f 48/114/14 49/115/14 26/116/14 27/117/14 

vt -6.60733 -2.93147e-15
vn -1 0 -1.80056e-15
vt -3.9637 -2.93147e-15
vt -3.9637 0.634486
vt -6.60733 0.634486
f 49/118/28 46/119/28 37/120/28 26/121/28 

g Mesh2 Model

v 56.0995 -1.15506e-14 -151.107
vt 15.5679 -3.18366
vn 0.894427 0.447214 -2.29817e-14
v 52.9495 6.3 -147.957
vt 15.2433 -2.28984
v 56.0995 -1.15506e-14 -144.807
vt 14.9188 -3.18366
f 50/122/29 51/123/29 52/124/29

v 49.7995 -1.15506e-14 -151.107
vt -5.13062 -8.57534
vn 1.31437e-14 0.447214 -0.894427
vt -5.45515 -7.68152
vt -5.77968 -8.57534
f 53/125/30 51/126/30 50/127/30

v 49.7995 -1.15506e-14 -144.807
vt -14.9188 2.82613
vn -0.894427 0.447214 1.14776e-14
vt -15.2433 3.71994
vt -15.5679 2.82613
f 54/128/31 51/129/31 53/130/31

vt 5.45515 9.11163
vn -2.62345e-14 0.447214 0.894427
vt 5.13062 8.21781
vt 5.77968 8.21781
f 51/131/32 54/132/32 52/133/32

g Mesh3 Model

v 81.1882 21 -130.744
vt 8.36446 9.80327
vn -1.57471e-14 0.447214 0.894427
v 70.6882 -1.15506e-14 -120.244
vt 7.28269 6.82389
v 91.6882 -1.15506e-14 -120.244
vt 9.44623 6.82389
f 55/134/33 56/135/33 57/136/33

vt -13.47 6.99096
vn -0.894427 0.447214 -3.94153e-15
v 70.6882 -1.15506e-14 -141.244
vt -14.5518 4.01157
vt -12.3882 4.01157
f 55/137/34 58/138/34 56/139/34

vt -7.28269 -8.01564
vn -3.94153e-15 0.447214 -0.894427
vt -8.36446 -5.03625
v 91.6882 -1.15506e-14 -141.244
vt -9.44623 -8.01564
f 58/140/35 55/141/35 59/142/35

vt 14.5518 -5.20333
vn 0.894427 0.447214 -3.94153e-15
vt 13.47 -2.22394
vt 12.3882 -5.20333
f 59/143/36 55/144/36 57/145/36

g Mesh4 Model

v 33.1827 -1.15506e-14 -206.413
vt -3.41867 -11.714
vn -5.91504e-30 0.447214 -0.894427
v 43.6827 21 -195.913
vt -4.50044 -8.73461
v 54.1827 -1.15506e-14 -206.413
vt -5.5822 -11.714
f 60/146/37 61/147/37 62/148/37

v 33.1827 -1.15506e-14 -185.413
vt -19.1023 1.88313
vn -0.894427 0.447214 3.94153e-15
vt -20.1841 4.86251
vt -21.2658 1.88313
f 63/149/38 61/150/38 60/151/38

v 54.1827 -1.15506e-14 -185.413
vt 5.5822 10.5222
vn -3.94153e-15 0.447214 0.894427
vt 4.50044 13.5016
vt 3.41867 10.5222
f 64/152/39 61/153/39 63/154/39

vt 20.1841 -0.0954952
vn 0.894427 0.447214 -3.92248e-15
vt 19.1023 -3.07488
vt 21.2658 -3.07488
f 61/155/40 64/156/40 62/157/40

g Mesh5 Model

v 60.1904 -1.15506e-14 -203.016
vt -6.20115 -11.3002
vn 5.94486e-15 0.438634 -0.898666
v 70.6904 21 -192.766
vt -7.28291 -8.33483
v 81.1904 -1.15506e-14 -203.016
vt -8.36468 -11.3002
f 65/158/41 66/159/41 67/160/41

v 60.1904 -1.15506e-14 -182.516
vt -18.8038 3.41582
vn -0.894427 0.447214 1.99814e-15
vt -19.8598 6.3952
vt -20.9158 3.41582
f 68/161/42 66/162/42 65/163/42

v 81.1904 -1.15506e-14 -182.516
vt 8.36468 10.1591
vn -3.94927e-15 0.438634 0.898666
vt 7.28291 13.1244
vt 6.20115 10.1591
f 69/164/43 66/165/43 68/166/43

vt 19.8598 -1.62819
vn 0.894427 0.447214 4.03623e-15
vt 18.8038 -4.60757
vt 20.9158 -4.60757
f 66/167/44 69/168/44 67/169/44

g Mesh6 Model

v 76.6497 -2.31012e-14 -174.15
vt 17.9419 -4.34988
vn 0.894427 0.447214 8.05248e-15
v 66.1497 21 -163.9
vt 16.8859 -1.3705
v 76.6497 -2.31012e-14 -153.65
vt 15.8299 -4.34988
f 70/170/45 71/171/45 72/172/45

vt -6.8151 -6.72815
vn -4.94365e-15 0.438634 -0.898666
vt -7.89687 -9.69348
v 55.6497 -2.31012e-14 -174.15
vt -5.73334 -9.69348
f 71/173/46 70/174/46 73/175/46

v 55.6497 -2.31012e-14 -153.65
vt -15.8299 3.15813
vn -0.894427 0.447214 -1.51858e-15
vt -16.8859 6.13751
vt -17.9419 3.15813
f 74/176/47 71/177/47 73/178/47

vt 6.8151 11.5178
vn 3.95018e-15 0.438634 0.898666
vt 5.73334 8.55242
vt 7.89687 8.55242
f 71/179/48 74/180/48 72/181/48

g Mesh7 Model

v 108.458 -1.15506e-14 -90.1331
vt -11.1739 -5.11507
vn 2.66857e-14 0.447214 -0.894427
v 116.208 15.5 -82.3831
vt -11.9724 -2.916
v 123.958 -1.15506e-14 -90.1331
vt -12.7708 -5.11507
f 75/182/49 76/183/49 77/184/49

v 108.458 -1.15506e-14 -74.6331
vt -7.68911 6.15501
vn -0.894427 0.447214 2.66507e-14
vt -8.48756 8.35408
vt -9.28601 6.15501
f 78/185/50 76/186/50 75/187/50

v 123.958 -1.15506e-14 -74.6331
vt 12.7708 4.23544
vn 1.59904e-14 0.447214 0.894427
vt 11.9724 6.43451
vt 11.1739 4.23544
f 79/188/51 76/189/51 78/190/51

vt 8.48756 -4.83557
vn 0.894427 0.447214 2.67381e-15
vt 7.68911 -7.03464
vt 9.28601 -7.03464
f 76/191/52 79/192/52 77/193/52

g Mesh8 Model

v 87.2564 -1.15506e-14 -224.626
vt -8.98964 -13.2612
vn 4.08837e-15 0.465234 -0.885188
v 97.2264 19.94 -214.146
vt -10.0168 -10.4027
v 107.196 -1.15506e-14 -224.626
vt -11.044 -13.2612
f 80/194/53 81/195/53 82/196/53

v 87.2564 -1.15506e-14 -203.666
vt -20.9828 4.95182
vn -0.894427 0.447214 1.98785e-15
vt -22.0625 7.78082
vt -23.1422 4.95182
f 83/197/54 81/198/54 80/199/54

vt 10.0168 14.8823
vn -1.48846e-18 0.465234 0.885188
vt 8.98964 12.0238
v 107.196 -1.15506e-14 -203.666
vt 11.044 12.0238
f 81/200/55 83/201/55 84/202/55

vt 22.0625 -3.25442
vn 0.894427 0.447214 -1.96873e-15
vt 20.9828 -6.08342
vt 23.1422 -6.08342
f 81/203/56 84/204/56 82/205/56

g Mesh9 Model

v 19.543 31.5 -232.526
vt -23.9561 4.68433
vn -0.894427 0.447214 2.94504e-15
v 3.79297 -2.31012e-14 -248.276
vt -25.5788 0.215252
v 3.79297 -2.31012e-14 -216.776
vt -22.3335 0.215252
f 85/206/57 86/207/57 87/208/57

vt -0.390772 -14.0897
vn 1.32019e-15 0.447214 -0.894427
vt -2.01342 -9.62064
v 35.293 -2.31012e-14 -248.276
vt -3.63608 -14.0897
f 86/209/58 85/210/58 88/211/58

vt 23.9561 2.46619
vn 0.894427 0.447214 2.58279e-30
v 35.293 -2.31012e-14 -216.776
vt 22.3335 -2.00288
vt 25.5788 -2.00288
f 85/212/59 89/213/59 88/214/59

vt 3.63608 12.3021
vn 5.2469e-15 0.447214 0.894427
vt 2.01342 16.7712
vt 0.390772 12.3021
f 89/215/60 85/216/60 87/217/60

g Mesh10 Model

v 68.09 -1.15506e-14 -246.096
vt -7.01501 -13.966
vn -5.27928e-15 0.447214 -0.894427
v 75.89 15.6 -238.296
vt -7.81861 -11.7527
v 83.69 -1.15506e-14 -246.096
vt -8.62221 -13.966
f 90/218/61 91/219/61 92/220/61

v 68.09 -1.15506e-14 -230.496
vt -23.747 3.86412
vn -0.894427 0.447214 -3.96809e-15
vt -24.5506 6.07738
vt -25.3542 3.86412
f 93/221/62 91/222/62 90/223/62

v 83.69 -1.15506e-14 -230.496
vt 8.62221 13.0807
vn -2.63964e-15 0.447214 0.894427
vt 7.81861 15.294
vt 7.01501 13.0807
f 94/224/63 91/225/63 93/226/63

vt 24.5506 -2.53617
vn 0.894427 0.447214 2.65689e-15
vt 23.747 -4.74942
vt 25.3542 -4.74942
f 91/227/64 94/228/64 92/229/64

g Mesh11 Model

v 135.092 5.12949e-30 -251.32
vt 25.8924 -7.67108
vn 0.894293 0.447483 -9.31499e-15
v 121.782 26.6 -238.01
vt 24.5211 -3.89662
v 135.092 5.12949e-30 -224.7
vt 23.1498 -7.67108
f 95/230/65 96/231/65 97/232/65

v 108.472 5.12949e-30 -251.32
vt -11.1753 -14.271
vn -1.54065e-15 0.447483 -0.894293
vt -12.5466 -10.4966
vt -13.9179 -14.271
f 98/233/66 96/234/66 95/235/66

v 108.472 5.12949e-30 -224.7
vt -23.1498 6.15948
vn -0.894293 0.447483 -4.64797e-15
vt -24.5211 9.93394
vt -25.8924 6.15948
f 99/236/67 96/237/67 98/238/67

vt 12.5466 16.5339
vn -6.20766e-15 0.447483 0.894293
vt 11.1753 12.7594
vt 13.9179 12.7594
f 96/239/68 99/240/68 97/241/68

g Mesh12 Model

v 0 5 -0
vt 0 0
v 2.05521 5 -2.05521
vt 0.211739 0.2608
v 1.61708e-13 5 -253.93
vt 1.66601e-14 32.2231
f 100/242/6 101/243/6 102/244/6

v 211.56 5 -3.69619e-13
vt 21.7961 4.69036e-14
f 101/243/6 100/242/6 103/245/6

v 152.964 3 -9.24047e-14
vt 15.7592 0.380692
vn 2.05664e-15 -7.2804e-15 1
v 155.808 3 -7.39237e-13
vt 16.0522 0.380692
v 155.808 5.12949e-30 -7.39237e-13
vt 16.0522 -3.8626e-28
v 211.56 5.12949e-30 -3.69619e-13
vt 21.7961 6.11499e-29
vt 21.7961 0.634486
vt 0 0.634486
v 0 5.12949e-30 -0
vt 0 6.50918e-31
v 152.964 5.12949e-30 -9.24047e-14
vt 15.7592 2.05922e-28
f 104/246/69 105/247/69 106/248/69 107/249/69 103/250/69 100/251/69 108/252/69 109/253/69 

v 155.808 3 -2.05521
vt -16.0522 0.2608
vn 5.07818e-16 -1 -7.0252e-16
vt -16.0522 9.40746e-14
vt -15.7592 1.19933e-14
v 152.964 3 -2.05521
vt -15.7592 0.2608
f 110/254/70 105/255/70 104/256/70 111/257/70 

v 155.808 5.12949e-30 -2.05521
vt -0.211739 6.50918e-31
vn -1 0 -0
vt -7.61603e-14 6.50918e-31
vt -7.61603e-14 0.380692
vt -0.211739 0.380692
f 112/258/71 106/259/71 105/260/71 110/261/71 

v 2.05521 5.12949e-30 -2.05521
vt -0.211739 -1.73154e-15
vn 1.50817e-15 6.63934e-15 -1
vt -0.211739 0.634486
v 209.505 5 -2.05521
vt -21.5844 0.634486
v 209.505 5.12949e-30 -2.05521
vt -21.5844 -1.73154e-15
vt -16.0522 -1.73154e-15
vt -16.0522 0.380692
vt -15.7592 0.380692
v 152.964 5.12949e-30 -2.05521
vt -15.7592 -1.73154e-15
f 113/262/72 101/263/72 114/264/72 115/265/72 112/266/72 110/267/72 111/268/72 116/269/72 

vt 0.211739 6.50918e-31
vn 1 0 7.86006e-16
v 2.05521 5.12949e-30 -251.875
vt 25.9496 6.50918e-31
v 2.05521 5 -251.875
vt 25.9496 0.634486
vt 0.211739 0.634486
f 113/270/73 117/271/73 118/272/73 101/273/73 

vn 6.68147e-16 0 1
v 209.505 5.12949e-30 -251.875
vt 21.5844 6.50918e-31
v 209.505 5 -251.875
vt 21.5844 0.634486
f 117/270/74 119/274/74 120/275/74 118/273/74 

vt -25.9496 6.50918e-31
vn -1 0 3.69885e-16
vt -25.9496 0.634486
f 119/276/75 115/258/75 114/263/75 120/277/75 

v 211.56 5 -253.93
vt 21.7961 32.2231
vt 21.5844 31.9623
vt 21.5844 0.2608
f 121/278/6 120/279/6 114/280/6

vt 0.211739 31.9623
f 121/278/6 118/281/6 120/279/6

f 102/244/6 118/281/6 121/278/6

f 118/281/6 102/244/6 101/243/6

v 211.56 5.12949e-30 -253.93
vt -21.7961 6.50918e-31
vn 0 0 -1
v 1.61708e-13 5.12949e-30 -253.93
vt -1.66601e-14 6.50918e-31
vt -1.66601e-14 0.634486
vt -21.7961 0.634486
f 122/282/76 123/283/76 102/284/76 121/285/76 

vt -26.1613 6.50918e-31
vn -1 0 -6.36821e-16
vt -26.1613 0.634486
f 123/286/77 108/252/77 100/251/77 102/287/77 

vt 5.39433e-14 6.50918e-31
vn 1 0 7.27795e-16
vt 26.1613 6.50918e-31
vt 26.1613 0.634486
vt 5.39433e-14 0.634486
f 107/288/78 122/289/78 121/290/78 103/291/78 

f 121/278/6 114/280/6 103/245/6

f 101/243/6 103/245/6 114/280/6

vt -1.05331e-12 0.380692
vn 1 0 -6.74419e-14
vt -1.05331e-12 6.50918e-31
vt 0.211739 0.380692
f 104/292/79 109/293/79 116/270/79 111/294/79 

g Mesh13 Model

usemtl HesyRa3
v -1.16614 0 0.0269115
vn 0 -1.10934e-18 0.0254
v -0.471466 0 0.0269115
vt 1 0
v -0.471466 1.59932 0.0269115
vt 1 1
v -1.16614 1.59932 0.0269115
vt 0 1
f 124/242/80 125/295/80 126/296/80 127/297/80 

