# Alias OBJ Model File
# Exported from SketchUp, (c) 2000-2012 Trimble Navigation Limited
# File units = meters

mtllib Ninetjer_v2.mtl

g Mesh1 Component_1_1 Model

usemtl _1
v 97.8463 7.68085 -34.2539
vt 1.98015 -4.01931
vn 0.98561 0.169038 -4.8969e-16
v 103.661 0 -29.3779
vt 0.145429 -9.96334
v 103.661 0 -81.4108
vt 19.7244 -9.96334
v 97.8463 7.68085 -76.5349
vt 17.8897 -4.01931
f 1/1/1 2/2/1 3/3/1 4/4/1 

vt 24.4865 6.00188
vn 3.74454e-16 0.128342 0.99173
v 93.3637 7.68085 -34.2539
vt 23.1574 6.00188
v 93.3637 6.82742 -33.7121
vt 23.1574 5.33633
v 75.397 6.82742 -33.7121
vt 17.8303 5.33633
v 25.5729 6.82742 -33.7121
vt 3.05747 5.33633
v 25.5729 7.68085 -34.2539
vt 3.05747 6.00188
v 21.0758 7.68085 -34.2539
vt 1.72407 6.00188
v 15.261 0 -29.3779
vt -1.06581e-14 0.0119714
vt 26.2105 0.0119714
f 1/5/2 5/6/2 6/7/2 7/8/2 8/9/2 9/10/2 10/11/2 11/12/2 2/13/2 

vt 24.4865 20.9235
vn 1.11196e-15 1 4.48785e-31
v 93.3637 7.68085 -76.5349
vt 23.1574 20.9235
vt 23.1574 2.16345
vt 24.4865 2.16345
f 4/14/3 12/15/3 5/16/3 1/17/3 

v 25.5729 6.82742 -77.0766
vt -2.96908 -2.66493
vn -1.0865e-15 0.128342 -0.99173
v 88.852 6.82742 -77.0766
vt -21.7313 -2.66493
v 93.3637 6.82742 -77.0766
vt -23.069 -2.66493
vt -23.069 -1.99939
vt -24.3981 -1.99939
vt -26.1221 -7.98929
v 15.261 0 -81.4108
vt 0.0883848 -7.98929
v 21.0758 7.68085 -76.5349
vt -1.63568 -1.99939
v 25.5729 7.68085 -76.5349
vt -2.96908 -1.99939
f 13/18/4 14/19/4 15/20/4 12/21/4 4/22/4 3/23/4 16/24/4 17/25/4 18/26/4 

vt 4.34696 1.42996
vn -9.16544e-28 1 -5.32694e-13
vt 22.9215 1.42996
v 25.5729 6.82742 -76.9033
vt 22.9215 1.48686
v 88.852 6.82742 -76.9033
vt 4.34696 1.48686
f 14/27/5 13/28/5 19/29/5 20/30/5 

usemtl FrontColor
v 25.5729 6.84394 -76.619
vt -200.486 631.446
vn 1 1.41975e-13 -1.31577e-16
vt -188.644 629.921
vt -181.424 629.921
f 21/31/6 19/32/6 13/33/6

usemtl _1
v 25.5729 7.15778 -71.2196
vt -3.05747 -17.9879
vn 1.51063e-15 0.961675 -0.274193
v 93.3637 7.15778 -71.2196
vt -23.1574 -17.9879
v 93.3637 6.84394 -76.619
vt -23.1574 -20.3944
v 88.852 6.84394 -76.619
vt -21.8197 -20.3944
vt -21.8197 -20.5211
vt -3.05747 -20.5211
vt -3.05747 -20.3944
f 22/34/7 23/35/7 24/36/7 25/37/7 20/38/7 19/39/7 21/40/7 

v 25.5729 7.38376 -65.0525
vt -3.06143 -15.6461
vn -1.78632e-15 0.984227 -0.176909
v 93.3637 7.38376 -65.0525
vt -23.1613 -15.6461
vt -23.1613 -18.3874
vt -3.06143 -18.3874
f 26/41/8 27/42/8 23/43/8 22/44/8 

v 25.5729 7.49849 -58.5892
vt -3.05747 -12.797
vn -2.36002e-15 0.99623 -0.0867495
v 93.3637 7.49849 -58.5892
vt -23.1574 -12.797
vt -23.1574 -15.6659
vt -3.05747 -15.6659
f 28/45/9 29/46/9 27/47/9 26/48/9 

v 25.5729 7.49849 -52.0262
vt 3.06298 8.99567
vn -3.27561e-15 1 -1.77243e-14
v 93.3637 7.49849 -52.0262
vt 23.1629 8.99567
vt 23.1629 11.9077
vt 3.06298 11.9077
f 30/49/10 31/50/10 29/51/10 28/52/10 

v 25.5729 7.38376 -45.563
vt 3.05643 7.50025
vn -3.02586e-15 0.99623 0.0867495
v 93.3637 7.38376 -45.563
vt 23.1563 7.50025
vt 23.1563 10.3692
vt 3.05643 10.3692
f 32/53/11 33/54/11 31/55/11 30/56/11 

v 25.5729 7.15778 -39.3958
vt 3.05747 4.74896
vn -2.12466e-15 0.984227 0.176909
v 93.3637 7.15778 -39.3958
vt 23.1574 4.74896
vt 23.1574 7.49026
vt 3.05747 7.49026
f 34/57/12 35/58/12 33/59/12 32/60/12 

vt 17.8245 2.19274
vn 4.48625e-16 0.961675 0.274193
vt 23.1516 2.19274
vt 23.1516 4.72601
vt 3.05174 4.72601
vt 3.05174 2.19274
f 7/61/13 6/62/13 35/63/13 34/64/13 8/65/13 

vt 1.21268 4.96494
vn -1 -8.51856e-15 -1.5987e-16
vt 1.34009 4.97696
vt 2.84355 5.20518
vt 4.56078 5.36951
vt 6.36046 5.45295
vt 8.1879 5.45295
vt 9.98758 5.36951
vt 11.7048 5.20518
vt 13.2874 4.96494
vt 13.1366 5.58556
vt 1.36353 5.58556
f 15/66/14 24/67/14 23/68/14 27/69/14 29/70/14 31/71/14 33/72/14 35/73/14 6/74/14 5/75/14 12/76/14 

vt 4.68504 1.61477
vn -2.33997e-14 0.984672 -0.174419
vt 3.3607 1.61477
vt 3.3607 1.46428
vt 4.68504 1.46428
f 25/77/15 24/78/15 15/79/15 14/80/15 

usemtl FrontColor
vt 181.424 629.921
vn -1 -8.48009e-12 2.49813e-12
vt 188.644 629.921
vt 200.486 631.446
f 14/81/16 20/82/16 25/83/16

usemtl _1
vt -2.84355 5.20518
vn 1 1.84193e-15 -5.38547e-16
vt -1.34009 4.97696
vt -1.21268 4.96494
vt -1.36353 5.58556
vt -13.1366 5.58556
vt -13.2874 4.96494
vt -11.7048 5.20518
vt -9.98758 5.36951
vt -8.1879 5.45295
vt -6.36046 5.45295
vt -4.56078 5.36951
f 22/84/17 21/85/17 13/86/17 18/87/17 9/88/17 8/89/17 34/90/17 32/91/17 30/92/17 28/93/17 26/94/17 

vt 1.72407 2.16345
vn 0 1 -0
vt 3.05747 2.16345
vt 3.05747 20.9235
vt 1.72407 20.9235
f 10/95/18 9/96/18 18/97/18 17/98/18 

vt -17.7391 5.98693
vn -0.98561 0.169038 1.70661e-15
vt -19.5739 0.0429095
vt 0.00508594 0.0429095
vt -1.82963 5.98693
f 17/99/19 16/100/19 11/101/19 10/102/19 

g Mesh2 Model

usemtl _2
v 47.7684 0 -9.69794
vt -47.7684 10.5103
vn 0 -1 -0
v 47.7684 0 -29.3779
vt -47.7684 31.8389
v 71.8884 0 -29.3779
vt -71.8884 31.8389
v 71.8884 0 -9.69794
vt -71.8884 10.5103
f 36/103/20 37/104/20 38/105/20 39/106/20 

vt -29.3779 0
vn -1 0 -7.04304e-15
vt -9.69794 0
v 47.7684 3 -9.69794
vt -9.69794 3.25131
v 47.7684 3 -29.3779
vt -29.3779 3.25131
f 37/107/21 36/108/21 40/109/21 41/110/21 

vt 47.7684 0
vn 0 0 1
vt 71.8884 0
v 71.8884 3 -9.69794
vt 71.8884 3.25131
vt 47.7684 3.25131
f 36/111/22 39/112/22 42/113/22 40/114/22 

vt 9.69794 0
vn 1 0 -1.40861e-14
vt 29.3779 0
v 71.8884 3 -29.3779
vt 29.3779 3.25131
vt 9.69794 3.25131
f 39/115/23 38/116/23 43/117/23 42/118/23 

vt -71.8884 0
vn 1.91552e-15 0 -1
vt -47.7684 0
vt -47.7684 3.25131
vt -71.8884 3.25131
f 38/119/24 37/120/24 41/121/24 43/122/24 

vt 47.7684 31.8389
vt 47.7684 10.5103
vt 71.8884 10.5103
vt 71.8884 31.8389
f 41/123/18 40/124/18 42/125/18 43/126/18 

g Mesh3 Model

usemtl Mudbrick4
v 0 5 -0
vt 0 0
v 2.48546 5 -2.48546
vt 1.24273 2.04489
v 2.48546 5 -85.9145
vt 1.24273 70.6855
f 44/127/18 45/128/18 46/129/18

v 119.6 5 -2.19461e-13
vt 59.8 1.8056e-13
f 45/128/18 44/127/18 47/130/18

v 0 0 -0
vn 9.45228e-16 8.94903e-15 1
v 101.283 0 4.62023e-14
vt 50.6414 -1.04505e-27
v 101.283 3 4.62023e-14
vt 50.6414 2.46823
v 102.533 3 -2.31012e-14
vt 51.2664 2.46823
v 102.533 0 -2.31012e-14
vt 51.2664 -5.43486e-28
v 119.6 0 -2.19461e-13
vt 59.8 7.83483e-28
vt 59.8 4.11371
vt 0 4.11371
f 48/127/25 49/131/25 50/132/25 51/133/25 52/134/25 53/135/25 47/136/25 44/137/25 

v 101.283 3 -2.48546
vt 1.24273 2.46823
vn 1 0 9.29453e-14
vt 4.68378e-12 2.46823
vt 4.68378e-12 0
v 101.283 0 -2.48546
vt 1.24273 0
f 54/138/26 50/139/26 49/140/26 55/141/26 

vt -50.6414 -3.80126e-14
vt -50.6414 2.04489
v 102.533 3 -2.48546
vt -51.2664 2.04489
vt -51.2664 1.90063e-14
f 50/142/20 54/143/20 56/144/20 51/145/20 

v 117.115 0 -2.48546
vt -58.5573 3.92203e-15
vn 3.04858e-18 -1.91797e-15 -1
v 102.533 0 -2.48546
vt -51.2664 3.92203e-15
vt -51.2664 2.46823
vt -50.6414 2.46823
vt -50.6414 3.92203e-15
v 2.48546 0 -2.48546
vt -1.24273 3.92203e-15
vt -1.24273 4.11371
v 117.115 5 -2.48546
vt -58.5573 4.11371
f 57/146/27 58/147/27 56/148/27 54/149/27 55/150/27 59/151/27 45/152/27 60/153/27 

v 117.115 0 -85.9145
vt -58.5573 70.6855
v 102.383 0 -85.9145
vt -51.1913 70.6855
v 102.383 0 -88.4
vt -51.1913 72.7304
v 119.6 0 -88.4
vt -59.8 72.7304
vt -59.8 1.8056e-13
vt -58.5573 2.04489
f 61/154/20 62/155/20 63/156/20 64/157/20 53/158/20 52/145/20 58/144/20 57/159/20 

v 2.48546 0 -85.9145
vt 1.24273 -3.99047e-13
vn -2.19558e-16 -5.64538e-15 1
v 101.133 0 -85.9145
vt 50.5663 -3.99047e-13
v 101.133 3 -85.9145
vt 50.5663 2.46823
v 102.383 3 -85.9145
vt 51.1913 2.46823
vt 51.1913 -3.99047e-13
vt 58.5573 -3.99047e-13
v 117.115 5 -85.9145
vt 58.5573 4.11371
vt 1.24273 4.11371
f 65/160/28 66/161/28 67/162/28 68/163/28 62/164/28 61/165/28 69/166/28 46/167/28 

v 101.133 3 -88.4
vt 44.2 2.46823
vn 1 0 3.71781e-14
vt 42.9573 2.46823
vt 42.9573 0
v 101.133 0 -88.4
vt 44.2 0
f 70/168/29 67/169/29 66/170/29 71/171/29 

vt 51.1913 70.6855
vn 2.88765e-16 1 1.45227e-16
v 102.383 3 -88.4
vt 51.1913 72.7304
vt 50.5663 72.7304
vt 50.5663 70.6855
f 68/172/30 72/173/30 70/174/30 67/175/30 

vn 1 -1.05252e-31 5.57672e-14
vt 42.9573 8.86587e-30
vt 44.2 8.86587e-30
f 72/168/31 68/169/31 62/176/31 63/177/31 

vt -59.8 3.21026e-13
vn -1.89358e-15 -4.41391e-15 -1
vt -51.1913 3.21026e-13
vt -51.1913 2.46823
vt -50.5663 2.46823
vt -50.5663 3.21026e-13
v -1.15506e-13 0 -88.4
vt -2.59435e-14 3.21026e-13
v -1.15506e-13 5 -88.4
vt -2.59435e-14 4.11371
v 119.6 5 -88.4
vt -59.8 4.11371
f 64/178/32 63/179/32 72/180/32 70/181/32 71/182/32 73/183/32 74/184/32 75/185/32 

vt -44.2 0
vn -1 0 1.30663e-15
vt -44.2 4.11371
f 73/186/33 48/127/33 44/137/33 74/187/33 

vt -5.77529e-14 72.7304
f 46/129/18 74/188/18 44/127/18

vt 59.8 72.7304
f 74/188/18 46/129/18 75/189/18

vt 58.5573 70.6855
f 75/189/18 46/129/18 69/190/18

f 69/190/18 47/130/18 75/189/18

vt 58.5573 2.04489
f 60/191/18 47/130/18 69/190/18

f 45/128/18 47/130/18 60/191/18

vt -42.9573 0
vn -1 0 -0
vt -1.24273 0
vt -42.9573 4.11371
f 61/192/34 57/193/34 60/152/34 69/194/34 

vt 4.72215e-14 0
vn 1 0 -1.0453e-15
vt 44.2 4.11371
vt 4.72215e-14 4.11371
f 53/195/35 64/171/35 75/196/35 47/197/35 

vn 1 0 -1.10758e-15
vt 42.9573 4.11371
f 59/141/36 65/170/36 46/198/36 45/167/36 

vt -1.15506e-14 2.46823
vt -1.24273 2.46823
vt -1.15506e-14 0
f 51/199/34 56/200/34 58/193/34 52/201/34 

g Mesh4 Model

usemtl HesyRa3
v -2.07744 0 -6.98504e-17
vn 0 -1.10934e-18 0.0254
v -1.38276 0 -6.98504e-17
vt 1 0
v -1.38276 1.59932 -1.2326e-32
vt 1 1
v -2.07744 1.59932 -1.2326e-32
vt 0 1
f 76/127/37 77/202/37 78/203/37 79/204/37 

