# Alias OBJ Model File
# Exported from SketchUp, (c) 2000-2012 Trimble Navigation Limited
# File units = meters

mtllib Aba_Pyramid.mtl

g Mesh1 Model

usemtl white_limeston_block
v 31.5 0 -0
vt 28.8127 -0.00329285
vn -1.48844e-18 0.6 0.8
v 30.75 1 -0.75
vt 28.4795 0.65156
v 0.75 1 -0.75
vt 15.1511 0.65156
v 0 0 -0
vt 14.8179 -0.00329285
f 1/1/1 2/2/1 3/3/1 4/4/1 

v 31.5 0 -31.5
vt 14.6638 -22.014
vn 0.8 0.6 2.48073e-19
v 30.75 1 -30.75
vt 14.3191 -21.3352
vt 0.510689 -21.3199
vt 0.16494 -21.998
f 5/5/2 6/6/2 2/7/2 1/8/2 

v 0 0 -31.5
vt -12.5895 -21.9994
vn 5.20953e-18 0.6 -0.8
v 0.75 1 -30.75
vt -12.9289 -21.3324
vt -26.5061 -21.3324
vt -26.8456 -21.9994
f 7/9/3 8/10/3 6/11/3 5/12/3 

vt -13.2895 -0.0158665
vn -0.8 0.6 4.63896e-17
vt -13.6352 0.663511
vt -27.4628 0.663513
vt -27.8085 -0.0158666
f 4/13/4 3/14/4 8/15/4 7/16/4 

v 3.53754 1 -27.9625
vt 2.0934 26.7918
vn 2.40637e-17 1 -1.20319e-17
vt 0.807277 28.3083
vt 0.807272 11.9868
f 9/17/5 8/18/5 3/19/5

vt 14.6487 28.3083
f 8/18/5 9/17/5 6/20/5

v 27.9625 1 -27.9625
vt 13.3626 26.7917
f 6/20/5 9/17/5 10/21/5

usemtl unfinished_blocks
v 3.53754 3 -27.9625
vt -3.53754 5.77975
vn 0 0 -1
v 27.9625 3 -27.9625
vt -27.9625 5.77975
vt -27.9625 1.92658
vt -3.53754 1.92658
f 11/22/6 12/23/6 10/24/6 9/25/6 

vt 27.9625 53.872
vn 0 1 -0
vt 3.53754 53.872
v 3.53754 3 -3.53754
vt 3.53754 6.81536
v 27.9625 3 -3.53754
vt 27.9625 6.81536
f 12/26/7 11/27/7 13/28/7 14/29/7 

vn -1 0 -0
v 3.53754 1 -3.53754
f 13/22/8 11/23/8 9/24/8 15/25/8 

usemtl white_limeston_block
vt 2.0934 13.5034
f 9/17/5 3/19/5 15/30/5

vt 14.6487 11.9869
f 2/31/5 15/30/5 3/19/5

v 27.9625 1 -3.53754
vt 13.3626 13.5034
f 15/30/5 2/31/5 16/32/5

f 16/32/5 2/31/5 10/21/5

f 6/20/5 10/21/5 2/31/5

usemtl unfinished_blocks
vt 27.9625 5.77975
vn 1 0 -0
vt 3.53754 5.77975
vt 3.53754 1.92658
vt 27.9625 1.92658
f 12/33/9 14/34/9 16/35/9 10/36/9 

vn 0 0 1
f 16/36/10 14/33/10 13/34/10 15/35/10 

g Mesh2 Model

usemtl HesyRa3
v -1.31094 0 0.115289
vt 0 0
vn 0 -1.10934e-18 0.0254
v -0.616268 0 0.115289
vt 1 0
v -0.616268 1.59932 0.115289
vt 1 1
v -1.31094 1.59932 0.115289
vt 0 1
f 17/37/11 18/38/11 19/39/11 20/40/11 

