# Alias OBJ Model File
# Exported from SketchUp, (c) 2000-2012 Trimble Navigation Limited
# File units = meters

mtllib Lepsius_XXV.mtl

g Mesh1 Model

usemtl unfinished_limestone2
v 0 0 -0
vt 0 0
vn -9.60175e-16 0.173973 0.98475
v 27.7 0 4.0427e-14
vt 8.65625 -1.41245e-15
v 26.93 6 -1.06
vt 8.41563 3.68654
v 0.64 6 -1.06
vt 0.2 3.68654
f 1/1/1 2/2/1 3/3/1 4/4/1 

vt -2.26252e-14 -2.13337
vn 0.991866 0.127289 -1.14489e-15
v 27.7 0 -21.53
vt 6.72812 -2.13337
v 26.93 6 -20.46
vt 6.39375 1.52672
vt 0.33125 1.52672
f 2/5/2 5/6/2 6/7/2 3/8/2 

v 0.64 6 -20.46
vt -0.2 1.40056
vn -9.69081e-17 0.175563 -0.984468
vt -8.41562 1.40056
vt -8.65625 -2.28703
v 6.02 0 -21.53
vt -1.88125 -2.28703
v 4.33147e-15 0 -21.53
vt -2.01588e-15 -2.28703
f 7/9/3 6/10/3 5/11/3 8/12/3 9/13/3 

usemtl _1
vt 1060.24 41.7323
vn 0 1 -0
vt 1060.24 805.512
vt 25.1969 805.512
vt 25.1969 41.7323
f 3/14/4 6/15/4 7/16/4 4/17/4 

usemtl unfinished_limestone2
vt -6.72812 1.26912e-16
vn -0.994359 0.106065 -1.08713e-16
vt -0.33125 3.65091
vt -6.39375 3.65091
f 9/18/5 1/1/5 4/19/5 7/20/5 

vt 1.88125 2.23311
vn -8.59823e-17 0.171424 0.985197
vt 8.65625 2.23311
v 27.01 5 -22.4
vt 8.44062 5.30383
v 6.89 5 -22.4
vt 2.15312 5.30383
f 8/21/6 5/22/6 10/23/6 11/24/6 

vt 6.72812 -2.29116
vn 0.990612 0.136704 4.07325e-16
v 27.7 0 -37.18
vt 11.6187 -2.29116
v 27.01 5 -36.32
vt 11.35 0.762774
vt 7 0.762774
f 5/25/7 12/26/7 13/27/7 10/28/7 

vt -8.65625 -3.8133
vn -1.42118e-16 0.169511 -0.985528
v 6.02 0 -37.18
vt -1.88125 -3.8133
v 6.89 5 -36.32
vt -2.15313 -0.743606
vt -8.44062 -0.743606
f 12/29/8 14/30/8 15/31/8 13/32/8 

vt -11.6187 0.624399
vn -0.985197 0.171424 -3.30697e-16
vt -6.72812 0.624399
vt -7 3.69512
vt -11.35 3.69512
f 14/33/9 8/34/9 11/35/9 15/36/9 

usemtl _1
vt 1063.39 881.89
vt 1063.39 1429.92
vt 271.26 1429.92
vt 271.26 881.89
f 10/37/4 13/38/4 15/39/4 11/40/4 

g Mesh2 Model

usemtl HesyRa3
v -1.6808 0 0.101616
vn 0 -1.10934e-18 0.0254
v -0.986125 0 0.101616
vt 1 0
v -0.986125 1.59932 0.101616
vt 1 1
v -1.6808 1.59932 0.101616
vt 0 1
f 16/1/10 17/41/10 18/42/10 19/43/10 

