# Alias OBJ Model File
# Exported from SketchUp, (c) 2000-2012 Trimble Navigation Limited
# File units = meters

mtllib Khentkaus_pyramid.mtl

g Mesh1 Model

usemtl white_limestone_block
v 0 0 -26.5
vt 0.208006 -7.31991
vn 0 0.614743 -0.788727
v 12.8603 16.5 -13.6397
vt -4.93611 2.48723
v 13.6397 16.5 -13.6397
vt -5.24788 2.48723
v 26.5 0 -26.5
vt -10.392 -7.31991
f 1/1/1 2/2/1 3/3/1 4/4/1 

v 0 0 -0
vt 0 0
vn -0.788727 0.614743 -9.29586e-18
v 12.8603 16.5 -12.8603
vt -5.14412 9.80714
vt -5.45588 9.80714
vt -10.6 -9.00094e-17
f 5/5/2 6/6/2 2/7/2 1/8/2 

v 26.5 0 -0
vt 10.6 0
vn 0 0.614743 0.788727
v 13.6397 16.5 -12.8603
vt 5.45588 9.80714
vt 5.14412 9.80714
f 7/9/3 8/10/3 6/11/3 5/5/3 

vt 10.6 -7.63704
vn 0.788727 0.614743 -9.29586e-18
vt 5.45588 2.1701
vt 5.14412 2.1701
vt -1.24931e-16 -7.63704
f 4/12/4 3/13/4 8/14/4 7/15/4 

usemtl Black_granite
v 13.25 17 -13.25
vt 17.6667 7.01735
vn 0.788727 0.614743 1.12034e-17
vt 17.1471 6.17211
vt 18.1863 6.17211
f 9/16/5 8/17/5 3/18/5

vt 17.6667 28.7383
vt 17.1471 27.893
vt 18.1863 27.893
f 9/19/3 6/20/3 8/21/3

vt -17.4944 28.9111
vn -0.788727 0.614743 1.48726e-15
vt -18.014 28.0658
vt -16.9748 28.0658
f 9/22/6 2/23/6 6/24/6

vt -17.6667 7.01735
vn 1.64551e-17 0.614743 -0.788727
vt -18.1863 6.17211
vt -17.1471 6.17211
f 9/25/7 3/26/7 2/27/7

usemtl FrontColor
vt 506.311 536.996
vn 0 1 -0
vt 506.311 506.311
vt 536.996 506.311
vt 536.996 536.996
f 2/28/8 6/29/8 8/30/8 3/31/8 

g Mesh2 Model

usemtl Niankhwadjet_01
v -0.921508 0 -0
vn 0 0 0.0254
v -0.257709 0 -0
vt 1 0
v -0.257709 1.50507 -0
vt 1 1
v -0.921508 1.50507 -0
vt 0 1
f 10/5/9 11/32/9 12/33/9 13/34/9 

