# Alias OBJ Model File
# Exported from SketchUp, (c) 2000-2012 Trimble Navigation Limited
# File units = meters

mtllib SenwosretIII.mtl

g Mesh1 Model

usemtl white_limestone_block
v 52.5 62.56 -52.5
vt 13.2904 4.23072
vn 0.766009 0.64283 -4.58419e-17
v 98.3955 7.87 -6.60446
vt 1.67192 -17.0815
v 98.3955 7.87 -98.3955
vt 24.9088 -17.0815
f 1/1/1 2/2/1 3/3/1

vt 13.2904 24.3791
vn 2.73131e-17 0.64283 0.766009
v 6.60446 7.87 -6.60446
vt 1.67192 3.06688
vt 24.9088 3.06688
f 1/4/2 4/5/2 2/6/2

vt -13.2904 24.3791
vn -0.766009 0.64283 -1.85289e-17
v 6.60446 7.87 -98.3955
vt -24.9088 3.06688
vt -1.67192 3.06688
f 1/7/3 5/8/3 4/9/3

vt -13.2904 4.23072
vn -2.2921e-17 0.64283 -0.766009
vt -24.9088 -17.0815
vt -1.67192 -17.0815
f 1/10/4 3/11/4 5/12/4

v 105 7.87 -105
vt 26.5807 31.3433
vn 0 1 -0
vt 1.67192 29.3718
vt 24.9088 29.3718
f 6/13/5 5/14/5 3/15/5

v 0 7.87 -105
vt 0 31.3433
f 5/14/5 6/13/5 7/16/5

v 0 0 -105
vt 0 0
vn 0 0 -1
vt 0 2.34925
vt -26.5807 2.34925
v 105 0 -105
vt -26.5807 0
f 8/17/6 7/18/6 6/19/6 9/20/6 

v 0 7.87 -0
vn -1 0 -0
v 0 0 -0
f 10/18/7 7/19/7 8/20/7 11/17/7 

vt 1.67192 1.97148
f 10/17/5 4/21/5 7/16/5

v 105 7.87 -0
vt 26.5807 0
f 4/21/5 10/17/5 12/22/5

v 105 0 -0
vn 0 0 1
vt 26.5807 2.34925
f 13/22/8 12/23/8 10/18/8 11/17/8 

vn 1 0 -0
f 9/22/9 6/23/9 12/18/9 13/17/9 

f 6/13/5 3/15/5 12/22/5

vt 24.9088 1.97148
f 2/24/5 12/22/5 3/15/5

f 4/21/5 12/22/5 2/24/5

vt 26.5807 -2.45914e-16
vn 9.34923e-18 0.64283 0.766009
f 13/25/10 2/6/10 4/5/10 11/17/10 

vt 26.5807 -20.1484
vn 0.766009 0.64283 -2.234e-17
vt -7.75205e-16 -20.1484
f 9/26/11 3/3/11 2/2/11 13/27/11 

vt -3.44536e-16 -20.1484
vn -9.92889e-18 0.64283 -0.766009
vt -26.5807 -20.1484
f 8/28/12 5/12/12 3/11/12 9/29/12 

vn -0.766009 0.64283 -1.29908e-17
vt -26.5807 -3.41698e-16
f 11/17/13 4/9/13 5/8/13 8/30/13 

f 7/16/5 4/21/5 5/14/5

g Mesh2 Model

usemtl HesyRa3
v -1.95891 0 -0.0459033
vn 0 -1.10934e-18 0.0254
v -1.26423 0 -0.0459033
vt 1 0
v -1.26423 1.59932 -0.0459033
vt 1 1
v -1.95891 1.59932 -0.0459033
vt 0 1
f 14/17/14 15/31/14 16/32/14 17/33/14 

