# Alias OBJ Model File
# Exported from SketchUp, (c) 2000-2012 Trimble Navigation Limited
# File units = meters

mtllib Sesheshet.mtl

g Mesh1 Model

usemtl white_limestone
v 11 15 -11
vt 3.10559 2.02032
vn 0.806405 0.591364 -0
v 22 0 -0
vt 0.0918888 -3.98896
v 22 0 -22
vt 6.11929 -3.98896
f 1/1/1 2/2/1 3/3/1

vt 3.0137 6.00928
vn 0 0.591364 0.806405
v 0 0 -0
vt 0 0
vt 6.0274 0
f 1/4/2 4/5/2 2/6/2

vt -3.09325 6.00904
vn -0.806405 0.591364 -0
v 0 0 -22
vt -6.10695 -0.000240836
vt -0.0795491 -0.000240836
f 1/7/3 5/8/3 4/9/3

vt -0.0936698 -3.99205
vn 0 0.591364 -0.806405
vt -3.10737 2.01723
vt -6.12107 -3.99205
f 5/10/4 1/11/4 3/12/4

g Mesh2 Model

usemtl Niankhwadjet_01
v -1.36521 0 -0.110052
vn 0 0 0.0254
v -0.701414 0 -0.110052
vt 1 0
v -0.701414 1.50507 -0.110052
vt 1 1
v -1.36521 1.50507 -0.110052
vt 0 1
f 6/5/5 7/13/5 8/14/5 9/15/5 

