# Alias OBJ Model File
# Exported from SketchUp, (c) 2000-2012 Trimble Navigation Limited
# File units = meters

mtllib Sahure_Pyramid.mtl

g Mesh1 Model

usemtl FrontColor
v 53.4692 47 -93.0511
vt 2212.84 3729.88
vn 0.0227406 0.642187 0.76621
v 52.4058 45.6913 -91.9227
vt 2169.68 3662.67
v 54.5976 45.6913 -91.9878
vt 2256 3662.67
f 1/1/1 2/2/1 3/3/1

vt -3599.37 2839.47
vn -0.76621 0.642187 0.0227406
v 52.3408 45.6913 -94.1145
vt -3642.53 2772.26
vt -3556.2 2772.26
f 1/4/2 4/5/2 2/6/2

vt -2212.84 -893.055
vn -0.0227406 0.642187 -0.76621
v 54.5325 45.6913 -94.1795
vt -2256 -960.268
vt -2169.68 -960.268
f 1/7/3 5/8/3 4/9/3

vt 3556.2 -69.8565
vn 0.76621 0.642187 -0.0227406
vt 3642.53 -69.8565
vt 3599.37 -2.64287
f 3/10/4 5/11/4 1/12/4

usemtl White_Limestone
v 91.6587 0 -133.577
vt 32.8641 -18.1856
vt 23.2463 -0.525697
vt 22.6954 -0.525697
v 93.995 0 -54.8616
vt 13.0776 -18.1856
f 6/13/4 5/14/4 3/15/4 7/16/4 

v 12.9434 0 -131.241
vt -4.22892 -24.8863
vt -13.8467 -7.22638
vt -14.3976 -7.22638
vt -24.0154 -24.8863
f 8/17/3 4/18/3 5/19/3 6/20/3 

v 15.2796 0 -52.5254
vt -13.0776 3.20235
vt -22.6954 20.8623
vt -23.2463 20.8623
vt -32.8641 3.20235
f 9/21/2 2/22/2 4/23/2 8/24/2 

vt 24.0154 9.90304
vt 14.3976 27.563
vt 13.8467 27.563
vt 4.22892 9.90304
v 30.9891 0 -52.9916
vt 8.17777 9.90304
v 77.0088 0 -54.3574
vt 19.7456 9.90304
f 7/25/1 3/26/1 2/27/1 9/28/1 10/29/1 11/30/1 

usemtl FrontColor
vt 2149.51 3621.57
vn 1.56273e-16 1 5.26538e-15
vt 2146.95 3707.86
vt 2060.66 3705.3
vt 2063.22 3619.01
f 3/31/5 5/32/5 4/33/5 2/34/5 

usemtl _5
vt 1220.04 2086.28
vn 0 1 -0
vt 3031.84 2140.06
v 77.0052 0 -54.4804
vt 3031.7 2144.9
v 30.9854 0 -53.1145
vt 1219.9 2091.12
f 10/35/6 11/36/6 12/37/6 13/38/6 

usemtl _9
vt -3031.84 2140.06
vn 0 -1 -0
v 31.9755 0 -19.7565
vt -1258.88 777.814
vt -1220.04 2086.28
f 11/39/7 14/40/7 10/41/7

v 38.5373 0 -1.14376
vt -1517.22 45.0299
f 14/40/7 11/39/7 15/42/7

v 47.5077 0 -8.98977
vt -1870.38 353.928
f 15/42/7 11/39/7 16/43/7

v 63.3907 0 -9.46117
vt -2495.7 372.487
f 16/43/7 11/39/7 17/44/7

v 64.0817 0 13.8186
vt -2522.9 -544.039
f 17/44/7 11/39/7 18/45/7

v 72.2659 0 -0.00386031
vt -2845.12 0.151981
f 18/45/7 11/39/7 19/46/7

v 77.9153 0 -23.8139
vt -3067.53 937.554
f 19/46/7 11/39/7 20/47/7

vt 846.139 0
vn 0.99956 0 -0.0296662
vt 2049.17 0
v 77.0088 5 -54.3574
vt 2049.17 196.85
v 77.9153 5 -23.8139
vt 846.139 196.85
f 20/48/8 11/49/8 21/50/8 22/51/8 

vt -3094 0
vn -0.0296662 0 -0.99956
vt -1281.4 0
v 30.9891 5 -52.9916
vt -1281.4 196.85
vt -3094 196.85
f 11/52/9 10/53/9 23/54/9 21/55/9 

vt -2049.17 0
vn -0.99956 0 0.0296662
vt -740.125 0
v 31.9755 5 -19.7565
vt -740.125 196.85
vt -2049.17 196.85
f 10/56/10 14/57/10 24/58/10 23/59/10 

v 25.4484 0 -19.5627
vt -1024.31 0
v 25.4484 5 -19.5627
vt -1024.31 196.85
f 14/53/9 25/60/9 26/61/9 24/54/9 

vt -1001.9 770.187
f 15/42/7 25/62/7 14/40/7

v 23.1853 0 -4.31027
vt -912.807 169.696
f 15/42/7 27/63/7 25/62/7

v 4.23364 0 -3.7478
vt -166.679 147.551
f 15/42/7 28/64/7 27/63/7

v 0 0 -0
vt 0 0
f 29/65/7 28/64/7 15/42/7

v 2.50995 0 -30.6299
vt -98.8169 1205.9
f 29/65/7 30/66/7 28/64/7

v -1.21672 0 -156.195
vt 47.9025 6149.39
f 29/65/7 31/67/7 30/66/7

v -4.71812 0 -158.97
vt 185.753 6258.66
f 31/67/7 29/65/7 32/68/7

vt -6261.42 0
v 0 5 -0
vt 0 196.85
v -4.71812 5 -158.97
vt -6261.42 196.85
f 32/69/10 29/65/10 33/70/10 34/71/10 

vn 0.0296662 0 0.99956
vt 1517.88 0
v 38.5373 5 -1.14376
vt 1517.88 196.85
f 29/65/11 15/72/11 35/73/11 33/70/11 

vt 2.53664e-12 0
v 39.2854 0 24.0651
vt 992.913 0
v 39.2854 5 24.0651
vt 992.913 196.85
vt 2.53664e-12 196.85
f 15/74/10 36/75/10 37/76/10 35/77/10 

vt -1546.67 -947.446
f 15/42/7 16/43/7 36/78/7

v 48.1987 0 14.29
vt -1897.59 -562.597
f 38/79/7 36/78/7 16/43/7

v 72.9506 0 23.066
vt -2872.07 -908.109
f 36/78/7 38/79/7 39/80/7

f 39/80/7 38/79/7 18/45/7

vt -2505.65 0
vt -1880.06 0
v 48.1987 5 14.29
vt -1880.06 196.85
v 64.0817 5 13.8186
vt -2505.65 196.85
f 18/81/9 38/82/9 40/83/9 41/84/9 

vt -618.644 0
vt 298.285 0
v 47.5077 5 -8.98977
vt 298.285 196.85
vt -618.644 196.85
f 38/85/8 16/86/8 42/87/8 40/88/8 

vt 1880.06 0
vt 2505.65 0
v 63.3907 5 -9.46117
vt 2505.65 196.85
vt 1880.06 196.85
f 16/89/11 17/90/11 43/91/11 42/92/11 

vt -298.285 0
vt 618.644 0
vt 618.644 196.85
vt -298.285 196.85
f 17/93/10 18/94/10 41/95/10 43/96/10 

vt 2495.7 372.487
vt 2522.9 -544.039
f 21/36/6 43/97/6 41/98/6

vt 1870.38 353.928
f 21/36/6 42/99/6 43/97/6

vt 1517.22 45.0299
f 21/36/6 35/100/6 42/99/6

vt 1258.88 777.814
f 21/36/6 24/101/6 35/100/6

f 24/101/6 21/36/6 23/35/6

vt 1001.9 770.187
f 26/102/6 35/100/6 24/101/6

v 23.1853 5 -4.31027
vt 912.807 169.696
f 44/103/6 35/100/6 26/102/6

v 4.23364 5 -3.7478
vt 166.679 147.551
f 45/104/6 35/100/6 44/103/6

f 45/104/6 33/65/6 35/100/6

v 2.50995 5 -30.6299
vt 98.8169 1205.9
f 46/105/6 33/65/6 45/104/6

v -1.21672 5 -156.195
vt -47.9025 6149.39
f 47/106/6 33/65/6 46/105/6

vt -185.753 6258.66
f 33/65/6 47/106/6 34/107/6

v 108.002 5 -162.315
vt 4252.06 6390.37
f 47/106/6 48/108/6 34/107/6

v 105.916 5 -159.374
vt 4169.93 6274.58
f 48/108/6 47/106/6 49/109/6

vt 134.548 0
v 105.916 0 -159.374
vt 4354.23 0
vt 4354.23 196.85
vt 134.548 196.85
f 31/110/11 50/111/11 49/112/11 47/113/11 

v 108.002 0 -162.315
vt -4252.06 6390.37
vt -4169.93 6274.58
f 31/67/7 51/114/7 50/115/7

f 51/114/7 31/67/7 32/68/7

vt -4439.76 0
vt 5.91172e-12 0
vt 5.91172e-12 196.85
vt -4439.76 196.85
f 51/116/9 32/117/9 34/118/9 48/119/9 

v 111.841 0 -32.9829
vt 1167.34 0
vt 6261.42 0
vt 6261.42 196.85
v 111.841 5 -32.9829
vt 1167.34 196.85
f 52/120/8 51/121/8 48/122/8 53/123/8 

v 109.582 0 -35.8586
vt -4314.25 1411.76
vt -4403.18 1298.54
f 54/124/7 51/114/7 52/125/7

f 50/115/7 51/114/7 54/124/7

vt -6148.11 0
vt -1283.15 0
v 109.582 5 -35.8586
vt -1283.15 196.85
vt -6148.11 196.85
f 50/126/10 54/127/10 55/128/10 49/129/10 

vt -4354.23 0
v 84.538 0 -35.1153
vt -3367.82 0
v 84.538 5 -35.1153
vt -3367.82 196.85
vt -4354.23 196.85
f 54/130/9 56/131/9 57/132/9 55/133/9 

v 88.0012 0 -32.2754
vt -3464.62 1270.68
vt -3328.27 1382.49
f 58/134/7 56/135/7 54/124/7

v 84.8673 0 -24.0202
vt -3341.23 945.677
f 56/135/7 58/134/7 59/136/7

v 88.9443 0 -0.498864
vt -3501.75 19.6403
f 60/137/7 59/136/7 58/134/7

f 60/137/7 20/47/7 59/136/7

f 19/46/7 20/47/7 60/137/7

vt 2843.87 0
vt 3500.79 0
v 88.9443 5 -0.498864
vt 3500.79 196.85
v 72.2659 5 -0.00386031
vt 2843.87 196.85
f 19/138/11 60/139/11 61/140/11 62/141/11 

vt -84.252 0
v 88.0012 5 -32.2754
vt -84.252 196.85
f 60/142/8 58/120/8 63/123/8 61/143/8 

vt 4439.76 0
vt 4439.76 196.85
f 58/139/11 52/144/11 53/145/11 63/140/11 

f 58/134/7 54/124/7 52/125/7

vt 4314.25 1411.76
vt 3464.62 1270.68
vt 4403.18 1298.54
f 55/146/6 63/147/6 53/148/6

vt 3328.27 1382.49
f 57/149/6 63/147/6 55/146/6

v 84.8673 5 -24.0202
vt 3341.23 945.677
f 63/147/6 57/149/6 64/150/6

vt -846.139 0
vt -846.139 196.85
f 56/127/10 59/151/10 64/152/10 57/128/10 

f 59/131/9 20/52/9 22/55/9 64/132/9 

vt 3067.53 937.554
vt 3501.75 19.6403
f 22/153/6 61/154/6 64/150/6

vt 2845.12 0.151981
f 22/153/6 62/155/6 61/154/6

f 21/36/6 62/155/6 22/153/6

f 21/36/6 41/98/6 62/155/6

v 72.9506 5 23.066
vt 2872.07 -908.109
f 41/98/6 65/156/6 62/155/6

vt 1897.59 -562.597
f 40/157/6 65/156/6 41/98/6

vt 1546.67 -947.446
f 40/157/6 37/158/6 65/156/6

f 37/158/6 40/157/6 42/99/6

f 42/99/6 35/100/6 37/158/6

f 36/72/11 39/138/11 65/141/11 37/73/11 

vt -992.913 0
vt -992.913 196.85
f 39/159/8 19/142/8 62/143/8 65/160/8 

f 39/80/7 18/45/7 19/46/7

f 64/150/6 61/154/6 63/147/6

f 48/108/6 55/146/6 53/148/6

f 48/108/6 49/109/6 55/146/6

vt 1202.44 0
vt 6148.11 0
vt 6148.11 196.85
vt 1202.44 196.85
f 30/161/8 31/162/8 47/163/8 46/164/8 

v 25.1 0 -31.3003
vt -134.548 0
vt -134.548 196.85
v 25.1 5 -31.3003
f 66/60/9 30/165/9 46/166/9 67/61/9 

vt -988.189 1232.3
v 3.535 0 -27.2874
vt -139.173 1074.31
f 66/167/7 68/168/7 30/66/7

v 22.4867 0 -27.8499
vt -885.301 1096.45
f 68/168/7 66/167/7 69/169/7

f 69/169/7 66/167/7 27/63/7

f 25/62/7 27/63/7 66/167/7

vt 740.125 0
vt 740.125 196.85
f 25/170/8 66/161/8 67/164/8 26/171/8 

vt 988.189 1232.3
f 44/103/6 26/102/6 67/172/6

v 22.4867 5 -27.8499
vt 885.301 1096.45
f 67/172/6 70/173/6 44/103/6

v 3.535 5 -27.2874
vt 139.173 1074.31
f 67/172/6 71/174/6 70/173/6

f 71/174/6 67/172/6 46/105/6

f 46/105/6 45/104/6 71/174/6

vt 142.542 0
vt 1069.71 0
vt 1069.71 196.85
vt 142.542 196.85
f 28/175/8 68/176/8 71/177/8 45/178/8 

f 28/64/7 30/66/7 68/168/7

vt 170.983 0
vt 917.439 0
vt 917.439 196.85
vt 170.983 196.85
f 68/179/11 69/180/11 70/181/11 71/182/11 

vt -1069.71 0
vt -142.542 0
vt -142.542 196.85
vt -1069.71 196.85
f 69/183/10 27/184/10 44/185/10 70/186/10 

vt -917.439 0
vt -170.983 0
vt -170.983 196.85
vt -917.439 196.85
f 27/187/9 28/188/9 45/189/9 44/190/9 

g Mesh2 Model

usemtl _3
v 19.9816 1.92951e-17 -9.3794
vt 797.286 194.361
vn 0.0245358 0.562114 0.826696
v 11.9022 11.55 -16.9931
vt 488.231 744.169
v 4.28852 1.92951e-17 -8.91364
vt 179.176 194.361
f 72/191/12 73/192/12 74/193/12

v 19.5158 1.92951e-17 -25.0725
vt 963.878 -448.166
vn 0.826696 0.562114 -0.0245358
vt 654.823 101.643
vt 345.767 -448.166
f 75/194/13 73/195/13 72/196/13

v 3.82276 1.92951e-17 -24.6067
vt -179.176 -541.809
vn -0.0245358 0.562114 -0.826696
vt -488.231 7.99917
vt -797.286 -541.809
f 76/197/14 73/198/14 75/199/14

vt -654.823 650.526
vn -0.826696 0.562114 0.0245358
vt -963.878 100.717
vt -345.767 100.717
f 73/200/15 76/201/15 74/202/15

g Mesh3 Model

usemtl HesyRa3
v -1.13482 0 0.00740546
vn 0 -1.10934e-18 0.0254
v -0.440148 0 0.00740546
vt 1 0
v -0.440148 1.59932 0.00740546
vt 1 1
v -1.13482 1.59932 0.00740546
vt 0 1
f 77/65/16 78/203/16 79/204/16 80/205/16 

