# Alias OBJ Model File
# Exported from SketchUp, (c) 2000-2012 Trimble Navigation Limited
# File units = meters

mtllib Khendjer_Pyramid.mtl

g Mesh1 Model

usemtl dark_black_granite
v 50.3565 37.35 -60.1427
vt 26.4588 14.992
vn -0.81815 0.575005 -1.3454e-14
v 49.6544 36.3509 -60.8449
vt 25.8943 14.0101
v 49.6544 36.3509 -59.4406
vt 27.0234 14.0101
f 1/1/1 2/2/1 3/3/1

vt 26.4817 44.9203
vn 5.14611e-14 0.575005 -0.81815
v 51.0587 36.3509 -60.8449
vt 25.9533 44.0014
vt 27.0101 44.0014
f 1/4/2 4/5/2 2/6/2

vt -26.6199 44.9929
vn 0.81815 0.575005 4.03678e-14
v 51.0587 36.3509 -59.4406
vt -27.2022 44.0078
vt -26.0615 43.9941
f 1/7/3 5/8/3 4/9/3

vt -26.4648 15.1092
vn 7.83852e-14 0.575005 0.81815
vt -27.1057 13.9945
vt -25.8239 13.9945
f 1/10/4 3/11/4 5/12/4

usemtl FrontColor
vt 1954.9 2340.18
vn -4.1125e-15 1 -1.35313e-28
vt 2010.19 2340.18
vt 2010.19 2395.47
vt 1954.9 2395.47
f 3/13/5 5/14/5 4/15/5 2/16/5 

usemtl white_limeston_block_big_1
v 76.6065 0 -33.8927
vt 6.28051e-05 0.000178817
vn 9.08362e-16 0.575005 0.81815
vt -0.486487 0.999918
vt -0.513231 0.999918
v 24.1065 0 -33.8927
vt -0.999781 0.000178817
v 38.1774 0 -33.8927
vt -0.731807 0.000178817
v 64.5291 0 -33.8927
vt -0.229947 0.000178817
f 6/17/6 5/18/6 3/19/6 7/20/6 8/21/6 9/22/6 

v 76.6065 0 -86.3927
vt 1.64532 -0.991155
vn 0.81815 0.575005 7.31156e-16
vt 1.15877 0.00858399
vt 1.13202 0.00858399
vt 0.645475 -0.991155
f 10/23/7 4/24/7 5/25/7 6/26/7 

v 24.1065 0 -86.3927
vt -0.459101 -1.11777
vn 7.47172e-16 0.575005 -0.81815
vt -0.94565 -0.118032
vt -0.972395 -0.118032
vt -1.45894 -1.11777
f 11/27/8 2/28/8 4/29/8 10/30/8 

vt 0.999922 5.34782e-05
vn -0.81815 0.575005 -4.02619e-18
vt 0.513372 0.999792
vt 0.486628 0.999792
vt 7.82359e-05 5.34782e-05
f 7/31/9 3/32/9 2/33/9 11/34/9 

usemtl FrontColor
vt -2540.52 0
vn 1.75329e-15 0 -1
vt -1503.05 0
v 38.1774 4 -33.8927
vt -1503.05 157.48
v 64.5291 4 -33.8927
vt -2540.52 157.48
f 9/35/10 8/36/10 12/37/10 13/38/10 

usemtl white_limestone1_1
v 38.1774 4 -2.6
vt -0.104072 1.56504
vn -1 -3.19874e-15 -2.5007e-15
vt -1.35664 1.56504
vt -1.35664 -4.77804e-14
v 38.1774 0 -22.8195
vt -0.913407 -4.77804e-14
v 38.1774 2.5 -22.8195
vt -0.913407 0.97815
v 38.1774 2.5 -19.9962
vt -0.8004 0.97815
v 38.1774 0 -19.9962
vt -0.8004 -4.77804e-14
v 38.1774 0 -2.6
vt -0.104072 -4.77804e-14
f 14/39/11 12/40/11 8/41/11 15/42/11 16/43/11 17/44/11 18/45/11 19/46/11 

v 64.5291 4 -2.6
vt 2.58294 1.01728
vn 0 1 -0
vt 2.58294 13.2609
vt 1.52815 13.2609
vt 1.52815 1.01728
f 20/47/12 13/48/12 12/49/12 14/50/12 

vt 1.35664 1.56504
vn 1 -5.25981e-17 2.59262e-16
vt 0.104072 1.56504
v 64.5291 0 -2.6
vt 0.104072 1.32798e-15
v 64.5291 0 -19.9962
vt 0.8004 1.32798e-15
v 64.5291 2.5 -19.9962
vt 0.8004 0.97815
v 64.5291 2.5 -22.8195
vt 0.913407 0.97815
v 64.5291 0 -22.8195
vt 0.913407 1.32798e-15
vt 1.35664 1.32798e-15
f 13/51/13 20/52/13 21/53/13 22/54/13 23/55/13 24/56/13 25/57/13 9/58/13 

usemtl Mudbrick4
v 120.05 0 -2.6
vt -120.05 0
vn 8.32162e-16 0 -1
vt -64.5291 0
vt -64.5291 6.58194
v 120.05 4 -2.6
vt -120.05 6.58194
f 26/59/14 21/60/14 20/61/14 27/62/14 

usemtl Mudbrick2
vt 64.5291 3.02411
v 122.65 4 2.31012e-14
vt 122.65 -2.68694e-14
vt 120.05 3.02411
f 20/63/12 28/64/12 27/65/12

vt 38.1774 3.02411
f 14/66/12 28/64/12 20/63/12

v 2.6 4 -2.6
vt 2.6 3.02411
f 29/67/12 28/64/12 14/66/12

v 0 4 -0
vt 0 0
f 29/67/12 30/68/12 28/64/12

v 1.38607e-13 4 -125.9
vt 1.38607e-13 146.437
f 30/68/12 29/67/12 31/69/12

v 2.6 4 -123.3
vt 2.6 143.413
f 32/70/12 31/69/12 29/67/12

v 122.65 4 -125.9
vt 122.65 146.437
f 31/69/12 32/70/12 33/71/12

v 120.05 4 -123.3
vt 120.05 143.413
f 33/71/12 32/70/12 34/72/12

usemtl Mudbrick4
v 2.6 0 -123.3
vt 2.6 0
vn -3.93379e-16 0 1
v 120.05 0 -123.3
vt 120.05 0
vt 120.05 6.58194
vt 2.6 6.58194
f 35/73/15 36/74/15 34/75/15 32/76/15 

vt -123.3 0
vn -1 0 1.91393e-16
vt -2.6 0
vt -2.6 6.58194
vt -123.3 6.58194
f 36/77/16 26/78/16 27/79/16 34/80/16 

usemtl Mudbrick2
f 33/71/12 34/72/12 27/65/12

f 33/71/12 27/65/12 28/64/12

usemtl Mudbrick4
v 122.65 0 2.31012e-14
vt 2.19085e-14 0
vn 1 0 3.66976e-16
v 122.65 0 -125.9
vt 125.9 0
vt 125.9 6.58194
vt 2.19085e-14 6.58194
f 37/81/17 38/82/17 33/83/17 28/84/17 

vt -122.65 0
vn 0 0 -1
v 1.38607e-13 0 -125.9
vt -1.38607e-13 0
vt -1.38607e-13 6.58194
vt -122.65 6.58194
f 38/85/18 39/86/18 31/87/18 33/88/18 

vt -125.9 0
vn -1 0 -1.10093e-15
v 0 0 -0
vt 0 6.58194
vt -125.9 6.58194
f 39/89/19 40/68/19 30/90/19 31/91/19 

v 52.1032 2 6.93035e-14
vt 52.1032 3.29097
vn -1.17317e-16 5.35662e-15 1
v 52.1032 0 6.93035e-14
vt 52.1032 -5.56979e-28
vt 122.65 -7.6792e-29
vt 122.65 6.58194
v 50.6032 0 6.93035e-14
vt 50.6032 -5.5853e-28
v 50.6032 2 6.93035e-14
vt 50.6032 3.29097
f 41/92/20 42/93/20 37/94/20 28/95/20 30/90/20 40/68/20 43/96/20 44/97/20 

vt -3.47083e-12 0
vn -1 0 -6.79446e-14
vt -3.47083e-12 3.29097
v 52.1032 2 -0.68
vt -0.68 3.29097
v 52.1032 0 -0.68
vt -0.68 0
f 42/98/21 41/99/21 45/100/21 46/101/21 

vt -52.1032 -1.14038e-13
vn 0 -1 -0
vt -50.6032 -1.14038e-13
v 50.6032 2 -0.68
vt -50.6032 1.11893
vt -52.1032 1.11893
f 41/102/22 44/103/22 47/104/22 45/105/22 

vt 5.08802e-12 3.29097
vn 1 0 1.01917e-13
vt 5.08802e-12 0
v 50.6032 0 -0.68
vt 0.68 0
vt 0.68 3.29097
f 44/106/23 43/107/23 48/108/23 47/109/23 

usemtl _1
vt 1992.25 0
vn -1.54008e-14 0 1
vt 2051.31 0
vt 2051.31 78.7402
vt 1992.25 78.7402
f 48/110/24 46/111/24 45/112/24 47/113/24 

usemtl Mudbrick4
v 2.6 0 -2.6
vn 1 0 -0
vt 123.3 0
vt 123.3 6.58194
f 49/73/25 35/114/25 32/115/25 29/76/25 

vt -38.1774 0
vn -3.89593e-15 0 -1
vt -38.1774 6.58194
f 19/116/26 49/78/26 29/79/26 14/117/26 

usemtl white_limestone1_1
vt 2.58294 0
vn -2.96831e-15 0 1
v 87.877 0 -19.9962
vt 3.5175 0
v 87.877 2.5 -19.9962
vt 3.5175 0.97815
vt 2.58294 0.97815
f 22/118/27 50/119/27 51/120/27 23/121/27 

vt 0.8004 0
vn 1 0 8.95163e-16
v 87.877 0 -97.4162
vt 3.89933 0
v 87.877 2.5 -97.4162
vt 3.89933 0.97815
f 50/122/28 52/123/28 53/124/28 51/55/28 

vt -3.5175 0
vn 3.09543e-16 0 -1
v 13.247 0 -97.4162
vt -0.530243 0
v 13.247 2.5 -97.4162
vt -0.530243 0.97815
vt -3.5175 0.97815
f 52/125/29 54/126/29 55/127/29 53/128/29 

vt -3.89933 0
vn -1 0 -0
v 13.247 0 -19.9962
vt -0.8004 0
v 13.247 2.5 -19.9962
vt -3.89933 0.97815
f 54/129/30 56/130/30 57/44/30 55/131/30 

vt 0.000985956 0.0096375
vn -3.70651e-15 0 1
vt 0.998888 0.0096375
vt 0.998888 0.987788
vt 0.000985956 0.987788
f 56/132/31 18/133/31 17/134/31 57/135/31 

vt 2.58294 7.82373
vt 3.5175 7.82373
vt 3.5175 38.1151
vt 0.530243 38.1151
vt 0.530243 7.82373
vt 1.52815 7.82373
vt 1.52815 8.92834
v 16.0702 2.5 -22.8195
vt 0.643249 8.92834
v 16.0702 2.5 -94.593
vt 0.643249 37.0105
v 85.0537 2.5 -94.593
vt 3.40449 37.0105
v 85.0537 2.5 -22.8195
vt 3.40449 8.92834
vt 2.58294 8.92834
f 23/136/12 51/137/12 53/138/12 55/139/12 57/140/12 17/141/12 16/142/12 58/143/12 59/144/12 60/145/12 61/146/12 24/147/12 

vt -1.52815 0
vn 1.04496e-15 0 -1
v 16.0702 0 -22.8195
vt -0.643249 0
vt -0.643249 0.97815
vt -1.52815 0.97815
f 15/148/32 62/149/32 58/150/32 16/151/32 

vt 0.913407 0
vn 1 0 1.60931e-15
v 16.0702 0 -94.593
vt 3.78633 0
vt 3.78633 0.97815
f 62/152/33 63/153/33 59/154/33 58/56/33 

vt 0.643249 0
vn -6.69758e-16 0 1
v 85.0537 0 -94.593
vt 3.40449 0
vt 3.40449 0.97815
vt 0.643249 0.97815
f 63/155/34 64/156/34 60/157/34 59/158/34 

vt -3.78633 0
vn -1 0 -6.43723e-16
v 85.0537 0 -22.8195
vt -0.913407 0
vt -3.78633 0.97815
f 64/159/35 65/160/35 61/43/35 60/161/35 

vt -3.40449 0
vt -2.58294 0
vt -2.58294 0.97815
vt -3.40449 0.97815
f 65/162/18 25/163/18 24/164/18 61/165/18 

g Mesh2 Model

usemtl white_limeston_block_big_2
v 102.476 18.5 -26.4746
vt -2.50082 -0.00293555
vn 0.828485 0.560011 7.7443e-16
v 114.981 0 -13.9696
vt -2.99909 -0.999539
v 114.981 0 -38.9796
vt -2.00254 -0.999539
f 66/166/36 67/167/36 68/168/36

vt 0.500037 0.997761
vn 8.41529e-15 0.560011 0.828485
v 89.9708 0 -13.9696
vt 0.00176264 0.00115847
vt 0.998312 0.00115847
f 66/169/37 69/170/37 67/171/37

vt 2.50082 0.995495
vn -0.828485 0.560011 7.79081e-16
v 89.9708 0 -38.9796
vt 2.00254 -0.00110774
vt 2.99909 -0.00110774
f 66/172/38 70/173/38 69/174/38

vt -1.00166 0.999696
vn 3.81435e-15 0.560011 -0.828485
vt -1.49993 1.9963
vt -1.9982 0.999696
f 70/175/39 66/176/39 68/177/39

g Mesh3 Model

usemtl HesyRa3
v -1.07746 0 -0.0291009
vn 0 -1.10934e-18 0.0254
v -0.382788 0 -0.0291009
vt 1 0
v -0.382788 1.59932 -0.0291009
vt 1 1
v -1.07746 1.59932 -0.0291009
vt 0 1
f 71/68/40 72/178/40 73/179/40 74/180/40 

