# Alias OBJ Model File
# Exported from SketchUp, (c) 2000-2012 Trimble Navigation Limited
# File units = meters

mtllib Neferirkare_Pyramid_unfinished.mtl

g Mesh1 Model

usemtl Red_granite
v 0 0 -0
vt 0 0
vn -0.808008 0.589172 -1.24335e-17
v 1.09375 1.5 -1.09375
vt -0.121528 0.462042
v 1.09375 1.5 -103.906
vt -11.5451 0.462042
v 0 0 -105
vt -11.6667 -2.36927e-16
f 1/1/1 2/2/1 3/3/1 4/4/1 

v 105 0 -0
vt 11.6667 -1.4065e-15
vn 7.38107e-17 0.589172 0.808008
v 103.906 1.5 -1.09375
vt 11.5451 0.462042
vt 0.121528 0.462042
f 5/5/2 6/6/2 2/7/2 1/1/2 

v 105 0 -105
vt 11.6702 -15.4716
vn 0.808008 0.589172 1.04561e-16
v 103.906 1.5 -103.906
vt 11.5486 -15.0095
vt 0.125023 -15.0095
vt 0.00349526 -15.4716
f 7/8/3 8/9/3 6/10/3 5/11/3 

vt 0.0479832 -15.4632
vn 8.03531e-18 0.589172 -0.808008
vt -0.0735446 -15.0011
vt -11.4972 -15.0011
vt -11.6187 -15.4632
f 4/12/4 3/13/4 8/14/4 7/15/4 

vt 4.46427 -12.6015
vn 2.01872e-17 1 6.2317e-17
v 2.09375 1.5 -102.906
vt 4.57539 -12.3526
vt 4.46429 12.9878
f 3/16/5 9/17/5 8/18/5

v 2.09375 1.5 -2.09375
vt 15.7768 -12.352
f 9/17/5 3/16/5 10/19/5

vt 15.888 -12.6009
f 2/20/5 10/19/5 3/16/5

vt 15.888 12.9877
f 10/19/5 2/20/5 6/21/5

v 102.906 1.5 -2.09375
vt 15.7769 12.7389
f 10/19/5 6/21/5 11/22/5

v 102.906 1.5 -102.906
vt 4.5754 12.7389
f 11/22/5 6/21/5 12/23/5

f 8/18/5 12/23/5 6/21/5

f 8/18/5 9/17/5 12/23/5

usemtl Unfinished_limestone
vt 0.348958 50.7319
vn 2.05877e-17 1 6.35533e-17
v 5.59375 1.5 -99.4062
vt 0.932292 49.0064
vt 17.151 50.7319
f 9/24/6 13/25/6 12/26/6

v 5.59375 1.5 -5.59375
vt 0.932292 2.75767
f 13/25/6 9/24/6 14/27/6

vt 0.348958 1.0322
f 10/28/6 14/27/6 9/24/6

vt 17.151 1.0322
f 14/27/6 10/28/6 11/29/6

v 99.4062 1.5 -5.59375
vt 16.5677 2.75767
f 14/27/6 11/29/6 15/30/6

v 99.4062 1.5 -99.4062
vt 16.5677 49.0064
f 15/30/6 11/29/6 16/31/6

f 12/26/6 16/31/6 11/29/6

f 12/26/6 13/25/6 16/31/6

v 94.5133 8 -94.5133
vt -15.7522 -24.8714
vn -2.52957e-17 0.601413 -0.798939
vt -16.5677 -28.8823
vt -0.932292 -28.8823
v 10.4867 8 -94.5133
vt -1.74779 -24.8714
f 17/32/7 16/33/7 13/34/7 18/35/7 

vt 0.932292 -28.8823
vn 0.798939 0.601413 2.16779e-16
vt 16.5677 -28.8823
vt 15.7522 -24.8714
v 94.5133 8 -70.1003
vt 11.6834 -24.8714
v 94.5133 8 -10.4867
vt 1.74779 -24.8714
f 15/36/8 16/37/8 17/38/8 19/39/8 20/40/8 

vt 15.7522 46.5942
vn 1.61865e-16 1 2.13571e-17
v 89.5133 8 -89.5133
vt 14.9189 44.1293
vt 15.7522 34.5589
f 17/41/9 21/42/9 19/43/9

v 15.4867 8 -89.5133
vt 2.58112 44.1293
f 17/41/9 22/44/9 21/42/9

vt 1.74779 46.5942
f 18/45/9 22/44/9 17/41/9

v 10.4867 8 -10.4867
vt 1.74779 5.16986
f 22/44/9 18/45/9 23/46/9

vt -16.5677 2.2493
vn -0.798939 0.601413 2.14423e-17
vt -0.932292 2.2493
vt -1.74779 6.26018
vt -15.7522 6.26018
f 13/47/10 14/48/10 23/49/10 18/50/10 

vt 16.5677 2.2493
vn 9.65749e-17 0.601413 0.798939
vt 15.7522 6.26018
vt 1.74779 6.26018
vt 0.932292 2.2493
f 15/51/11 20/52/11 23/53/11 14/54/11 

vt 15.7522 5.16986
v 15.4867 8 -15.4867
vt 2.58112 7.63482
f 20/55/9 24/56/9 23/46/9

v 89.5133 8 -15.4867
vt 14.9189 7.63482
f 24/56/9 20/55/9 25/57/9

f 25/57/9 20/55/9 21/42/9

f 19/43/9 21/42/9 20/55/9

vt 2.58112 -17.7635
vn 0.87678 0.480892 1.06971e-16
vt 14.9189 -17.7635
v 86.2224 14 -86.2224
vt 14.3704 -14.3898
v 86.2224 14 -18.7776
vt 3.1296 -14.3898
f 25/58/12 21/59/12 26/60/12 27/61/12 

vt -14.9189 -17.7635
vn -7.93233e-17 0.480892 -0.87678
vt -2.58112 -17.7635
v 18.7776 14 -86.2224
vt -3.1296 -14.3898
vt -14.3704 -14.3898
f 21/62/13 22/63/13 28/64/13 26/65/13 

vt -14.3704 10.5031
vn -0.87678 0.480892 -2.38279e-17
vt -14.9189 7.12948
vt -2.58112 7.12948
v 18.7776 14 -18.7776
vt -3.1296 10.5031
f 28/66/14 22/67/14 24/68/14 29/69/14 

f 22/44/9 23/46/9 24/56/9

vt 2.58112 7.12948
vn 2.70557e-18 0.480892 0.87678
vt 14.9189 7.12948
vt 14.3704 10.5031
vt 3.1296 10.5031
f 24/70/15 25/71/15 27/72/15 29/73/15 

v 22.2776 14 -22.2776
vt 3.71293 10.9827
vn -1.28445e-16 1 8.56298e-17
vt 3.1296 9.25718
vt 14.3704 9.25718
f 30/74/16 29/75/16 27/76/16

vt 3.1296 42.5069
f 29/75/16 30/74/16 28/77/16

v 22.2776 14 -82.7224
vt 3.71293 40.7815
f 31/78/16 28/77/16 30/74/16

vt 14.3704 42.5069
f 28/77/16 31/78/16 26/79/16

v 82.7224 14 -82.7224
vt 13.7871 40.7815
f 26/79/16 31/78/16 32/80/16

vt -13.7871 -6.28181
vn 4.11348e-17 0.314679 -0.949198
vt -3.71293 -6.28181
v 24.5982 21 -80.4018
vt -4.0997 -2.64617
v 80.4018 21 -80.4018
vt -13.4003 -2.64617
f 32/81/17 31/82/17 33/83/17 34/84/17 

vt -13.7871 10.0073
vn -0.949198 0.314679 -9.95875e-17
vt -3.71293 10.0073
v 24.5982 21 -24.5982
vt -4.0997 13.6429
vt -13.4003 13.6429
f 31/85/18 30/86/18 35/87/18 33/88/18 

vt 3.71293 10.0073
vn -1.7175e-18 0.314679 0.949198
v 82.7224 14 -22.2776
vt 13.7871 10.0073
v 80.4018 21 -24.5982
vt 13.4003 13.6429
vt 4.0997 13.6429
f 30/89/19 36/90/19 37/91/19 35/92/19 

vt 13.7871 10.9827
f 30/74/16 27/76/16 36/93/16

f 36/93/16 27/76/16 32/80/16

f 26/79/16 32/80/16 27/76/16

vt 13.7871 -6.28181
vn 0.949198 0.314679 -4.15355e-17
vt 13.4003 -2.64617
vt 4.0997 -2.64617
vt 3.71293 -6.28181
f 32/94/20 34/95/20 37/96/20 36/97/20 

v 76.9018 21 -28.0982
vt 12.817 13.8522
vn -2.58733e-17 1 2.58733e-17
vt 13.4003 12.1267
vt 13.4003 39.6374
f 38/98/21 37/99/21 34/100/21

v 28.0982 21 -28.0982
vt 4.68304 13.8522
f 39/101/21 37/99/21 38/98/21

vt 4.0997 12.1267
f 39/101/21 35/102/21 37/99/21

vt 4.0997 39.6374
f 35/102/21 39/101/21 33/103/21

v 28.0982 21 -76.9018
vt 4.68304 37.9119
f 40/104/21 33/103/21 39/101/21

f 33/103/21 40/104/21 34/100/21

v 76.9018 21 -76.9018
vt 12.817 37.9119
f 34/100/21 40/104/21 41/105/21

vt -12.817 -0.115546
vn -1.03082e-16 0.266265 -0.9639
vt -4.68304 -0.115546
v 30.0319 28 -74.9681
vt -5.00531 3.46464
v 74.9681 28 -74.9681
vt -12.4947 3.46464
f 41/106/22 40/107/22 42/108/22 43/109/22 

vt -4.68304 13.6674
vn -0.9639 0.266265 -1.26506e-16
v 30.0319 28 -30.0319
vt -5.00531 17.2476
vt -12.4947 17.2476
vt -12.817 13.6674
f 39/110/23 44/111/23 42/112/23 40/113/23 

vt 4.68304 13.6674
vn 1.13599e-18 0.266265 0.9639
vt 12.817 13.6674
v 74.9681 28 -30.0319
vt 12.4947 17.2476
vt 5.00531 17.2476
f 39/114/24 38/115/24 45/116/24 44/117/24 

vt 4.68304 -0.115546
vn 0.9639 0.266265 -1.45875e-16
vt 12.817 -0.115546
vt 12.4947 3.46464
vt 5.00531 3.46464
f 38/118/25 41/119/25 43/120/25 45/121/25 

f 34/100/21 41/105/21 38/98/21

vt 12.4947 36.9586
vn 1.28522e-16 1 -1.28522e-16
v 71.4681 28 -71.4681
vt 11.9114 35.2332
vt 12.4947 14.8055
f 43/122/26 46/123/26 45/124/26

v 33.5319 28 -71.4681
vt 5.58865 35.2332
f 43/122/26 47/125/26 46/123/26

vt 5.00531 36.9586
f 42/126/26 47/125/26 43/122/26

v 33.5319 28 -33.5319
vt 5.58865 16.5309
f 47/125/26 42/126/26 48/127/26

vt 5.00531 14.8055
f 44/128/26 48/127/26 42/126/26

f 48/127/26 44/128/26 45/124/26

v 71.4681 28 -33.5319
vt 11.9114 16.5309
f 48/127/26 45/124/26 49/129/26

f 49/129/26 45/124/26 46/123/26

vt 11.9114 6.74185
vn 0.981186 0.193063 -3.0669e-17
v 70.0908 35 -70.0908
vt 11.6818 10.259
v 70.0908 35 -34.9092
vt 5.8182 10.259
vt 5.58865 6.74185
f 46/130/27 50/131/27 51/132/27 49/133/27 

vt -11.9114 6.74185
vn 1.83698e-17 0.193063 -0.981186
vt -5.58865 6.74185
v 34.9092 35 -70.0908
vt -5.8182 10.259
vt -11.6818 10.259
f 46/134/28 47/135/28 52/136/28 50/137/28 

vt -11.9114 16.7356
vn -0.981186 0.193063 -7.98798e-17
vt -5.58865 16.7356
v 34.9092 35 -34.9092
vt -5.8182 20.2527
vt -11.6818 20.2527
f 47/138/29 48/139/29 53/140/29 52/141/29 

vt 5.58865 16.7356
vn 1.72059e-18 0.193063 0.981186
vt 11.9114 16.7356
vt 11.6818 20.2527
vt 5.8182 20.2527
f 48/142/30 49/143/30 51/144/30 53/145/30 

v 38.4092 35 -38.4092
vt 6.40154 18.9354
vn 0 1 -0
vt 5.8182 17.21
vt 11.6818 17.21
f 54/146/31 53/147/31 51/148/31

vt 5.8182 34.5542
f 53/147/31 54/146/31 52/149/31

v 38.4092 35 -66.5908
vt 6.40154 32.8287
f 55/150/31 52/149/31 54/146/31

vt 11.6818 34.5542
f 52/149/31 55/150/31 50/151/31

v 66.5908 35 -66.5908
vt 11.0985 32.8287
f 50/151/31 55/150/31 56/152/31

vt -11.0985 9.70646
vn 2.47333e-16 0.217362 -0.976091
vt -6.40154 9.70646
v 39.968 42 -65.032
vt -6.66134 13.2419
v 65.032 42 -65.032
vt -10.8387 13.2419
f 56/153/32 55/154/32 57/155/32 58/156/32 

vt -11.0985 20.958
vn -0.976091 0.217362 -2.22507e-17
vt -6.40154 20.958
v 39.968 42 -39.968
vt -6.66134 24.4935
vt -10.8387 24.4935
f 55/157/33 54/158/33 59/159/33 57/160/33 

vt 6.40154 20.958
vn -7.76623e-17 0.217362 0.976091
v 66.5908 35 -38.4092
vt 11.0985 20.958
v 65.032 42 -39.968
vt 10.8387 24.4935
vt 6.66134 24.4935
f 54/161/34 60/162/34 61/163/34 59/164/34 

vt 11.0985 18.9354
f 54/146/31 51/148/31 60/165/31

f 60/165/31 51/148/31 56/152/31

f 50/151/31 56/152/31 51/148/31

vt 6.40154 9.70646
vn 0.976091 0.217362 -2.29546e-17
vt 11.0985 9.70646
vt 10.8387 13.2419
vt 6.66134 13.2419
f 60/166/35 56/167/35 58/168/35 61/169/35 

vt 10.8387 32.0602
vn 2.30422e-16 1 -2.30422e-16
v 61.532 42 -61.532
vt 10.2553 30.3347
vt 10.8387 19.7039
f 58/170/36 62/171/36 61/172/36

v 43.468 42 -61.532
vt 7.24467 30.3347
f 58/170/36 63/173/36 62/171/36

vt 6.66134 32.0602
f 57/174/36 63/173/36 58/170/36

v 43.468 42 -43.468
vt 7.24467 21.4294
f 63/173/36 57/174/36 64/175/36

vt 6.66134 19.7039
f 59/176/36 64/175/36 57/174/36

f 64/175/36 59/176/36 61/172/36

v 61.532 42 -43.468
vt 10.2553 21.4294
f 64/175/36 61/172/36 65/177/36

f 65/177/36 61/172/36 62/171/36

vt 7.24467 15.4116
vn 0.986269 0.165148 -2.70391e-17
vt 10.2553 15.4116
v 60.3598 49 -60.3598
vt 10.06 18.9106
v 60.3598 49 -44.6402
vt 7.44003 18.9106
f 65/178/37 62/179/37 66/180/37 67/181/37 

vt -10.2553 15.4116
vn 5.81907e-17 0.165148 -0.986269
vt -7.24467 15.4116
v 44.6402 49 -60.3598
vt -7.44003 18.9106
vt -10.06 18.9106
f 62/182/38 63/183/38 68/184/38 66/185/38 

vt -10.2553 23.9603
vn -0.986269 0.165148 -6.85426e-19
vt -7.24467 23.9603
v 44.6402 49 -44.6402
vt -7.44003 27.4593
vt -10.06 27.4593
f 63/186/39 64/187/39 69/188/39 68/189/39 

vt 7.24467 23.9603
vn 3.11516e-17 0.165148 0.986269
vt 10.2553 23.9603
vt 10.06 27.4593
vt 7.44003 27.4593
f 64/190/40 65/191/40 67/192/40 69/193/40 

vt 7.44003 22.0072
vn 1.83696e-16 1 -1.83696e-16
vt 10.06 22.0072
vt 10.06 29.7569
vt 7.44003 29.7569
f 69/194/41 67/195/41 66/196/41 68/197/41 

g Mesh2 Model

usemtl HesyRa3
v -1.59424 -0.00336136 -6.98504e-17
vn 0 -1.10934e-18 0.0254
v -0.899562 -0.00336136 -6.98504e-17
vt 1 0
v -0.899562 1.59596 -1.2326e-32
vt 1 1
v -1.59424 1.59596 -1.2326e-32
vt 0 1
f 70/1/42 71/198/42 72/199/42 73/200/42 

