# Alias OBJ Model File
# Exported from SketchUp, (c) 2000-2012 Trimble Navigation Limited
# File units = meters

mtllib SolarTemple_Niuserre.mtl

g Mesh1 Model

usemtl White_Limestone
v 78.334 0 -3.50601
vt -24.9794 6.98364
vn 7.00321e-16 0.0807046 -0.996738
v 47.0757 0 -3.50601
vt -14.7283 7.01169
v 47.0757 6.5 -2.97972
vt -14.7332 9.53352
v 78.8603 6.5 -2.97972
vt -25.157 9.50501
f 1/1/1 2/2/1 3/3/1 4/4/1 

usemtl Limestone
v 47.0757 7.25 -8.15601
vt 1.6312 1.78598
vn 1 -1.26132e-15 -3.09686e-15
v 47.0757 7.25 11.45
vt -2.29 1.78598
v 47.0757 0 11.45
vt -2.29 1.46271e-14
v 47.0757 0 -4.62023e-14
vt -1.99169e-14 1.46271e-14
v 47.0757 6.5 -4.62023e-14
vt -1.99169e-14 1.60122
vt 0.595943 1.60122
vt 0.701202 1.46271e-14
v 47.0757 0 -8.15601
vt 1.6312 1.46271e-14
f 5/5/2 6/6/2 7/7/2 8/8/2 9/9/2 3/10/2 2/11/2 10/12/2 

vt 9.41514 -2.82061
vn 0 1 -0
vt 9.41514 2.00916
v 29.3919 7.25 -8.15601
vt 5.87838 2.00916
v 29.3919 7.25 11.45
vt 5.87838 -2.82061
f 6/13/3 5/14/3 11/15/3 12/16/3 

vt -9.41514 0
vn 2.61269e-15 0 -1
v 29.3919 0 -8.15601
vt -5.87838 0
vt -5.87838 1.78598
vt -9.41514 1.78598
f 10/17/4 13/18/4 11/19/4 5/20/4 

v 29.3919 0 -3.50601
vt -0.701202 -1.23156e-14
vn -1 -1.70095e-15 -3.45936e-15
v 29.3919 6.5 -2.97972
vt -0.595943 1.60122
v 29.3919 6.5 -0
vt -2.03354e-14 1.60122
v 29.3919 0 -0
vt -2.03354e-14 -1.23156e-14
v 29.3919 0 11.45
vt 2.29 -1.23156e-14
vt 2.29 1.78598
vt -1.6312 1.78598
vt -1.6312 -1.23156e-14
f 14/21/5 15/22/5 16/23/5 17/24/5 18/25/5 12/26/5 11/27/5 13/28/5 

usemtl White_Limestone
vt -9.37373 7.00012
vn 1.70796e-15 0.0807046 -0.996738
v 3.50601 0 -3.50601
vt -0.458713 7.00012
v 2.97972 6.5 -2.97972
vt -0.277458 9.64843
v 28.8656 6.5 -2.97972
vt -9.19248 9.64843
vt -9.37373 9.64843
f 14/29/6 19/30/6 20/31/6 21/32/6 15/33/6 

vt -36.1051 3.65714
vn 0.996738 0.0807046 2.19831e-16
v 3.50601 0 -107.674
vt -0.744755 3.65714
v 2.97972 6.5 -108.2
vt -0.566099 6.26746
vt -36.2838 6.26745
f 19/34/7 22/35/7 23/36/7 20/37/7 

vt -0.193771 6.23395
vn -3.03373e-16 0.0807046 0.996738
vt -0.0180926 3.66713
v 78.334 0 -107.674
vt 24.9594 3.66713
v 78.8603 6.5 -108.2
vt 25.1351 6.23395
f 23/38/8 22/39/8 24/40/8 25/41/8 

vt 0.303502 6.0119
vn -0.996738 0.0807046 2.18667e-16
vt 35.1457 6.0119
vt 35.3217 8.58396
vt 0.127462 8.58396
f 24/42/9 1/43/9 4/44/9 25/45/9 

usemtl Limestone
vt 15.7721 0.734028
vt 9.41514 0.734028
vt 9.41514 1.13815e-14
v 81.84 6.5 4.62023e-14
vt 16.368 -1.13815e-14
v 81.84 6.5 -111.18
vt 16.368 27.3882
v -3.46517e-14 6.5 -111.18
vt -6.93035e-15 27.3882
v 0 6.5 -0
vt 0 0
vt 5.87838 0
vt 5.87838 0.734028
vt 5.77312 0.734028
vt 0.595943 0.734028
vt 0.595943 26.6542
vt 15.7721 26.6542
f 4/46/3 3/47/3 9/48/3 26/49/3 27/50/3 28/51/3 29/52/3 16/53/3 15/54/3 21/55/3 20/56/3 23/57/3 25/58/3 

usemtl White_Limestone
vt 13.3403 3.64634
vn -2.65803e-15 0 1
v 81.84 0 4.62023e-14
vt 26.471 3.64635
vt 26.471 6.54133
vt 13.3403 6.54133
f 8/59/10 30/60/10 26/61/10 9/62/10 

vt -35.3337 3.65336
vn 1 0 -4.15563e-16
v 81.84 0 -111.18
vt 6.39985 3.65335
vt 6.39986 6.53042
vt -35.3337 6.53041
f 30/63/11 31/64/11 27/65/11 26/66/11 

vt -26.0017 3.62839
vn 5.64545e-16 0 -1
v -3.46517e-14 0 -111.18
vt 5.13395 3.62837
vt 5.13399 6.54435
vt -26.0017 6.54433
f 31/67/12 32/68/12 28/69/12 27/70/12 

vt 0.0236453 3.67566
vn -1 0 3.11672e-16
v 0 0 -0
vt 41.6213 3.67566
vt 41.6213 6.54335
vt 0.0236451 6.54335
f 32/71/13 33/72/13 29/73/13 28/74/13 

vt -0.197946 3.70499
vn 0 0 1
vt 10.6956 3.70499
vt 10.6956 6.54575
vt -0.197946 6.54575
f 33/75/14 17/76/14 16/77/14 29/78/14 

usemtl Limestone
vn 2.61269e-15 0 1
vt 9.41514 0
vt 9.41514 1.78598
vt 5.87838 1.78598
f 18/53/15 7/79/15 6/80/15 12/81/15 

g Mesh2 Model

v 24.9662 19 -66.4351
vt 4.99323 16.3657
v 29.4662 19 -70.9351
vt 5.89323 17.4743
v 24.9662 19 -94.4351
vt 4.99323 23.2633
f 34/82/3 35/83/3 36/84/3

v 52.9662 19 -66.4351
vt 10.5932 16.3657
f 35/83/3 34/82/3 37/85/3

usemtl Limestone_Big
vt 4.77832 3.33479
vn 5.30027e-16 0.278058 0.960564
v 20.0075 1.87019 -61.4765
vt 3.84273 -0.702887
v 57.9248 1.87019 -61.4765
vt 10.9969 -0.702887
vt 10.0613 3.33479
f 34/86/16 38/87/16 39/88/16 37/89/16 

vt 3.50997 8.34507
vn -0.960564 0.278058 2.77725e-17
v 20.0075 1.87019 -99.3937
vt 2.57438 4.30739
vt 9.72858 4.30739
vt 8.79299 8.34507
f 36/90/17 40/91/17 38/92/17 34/93/17 

v 52.9662 19 -94.4351
vt -9.97499 7.35616
vn 8.54538e-19 0.278058 -0.960564
v 57.9248 1.87019 -99.3937
vt -10.9106 3.31848
vt -3.75638 3.31848
vt -4.69197 7.35616
f 41/94/18 42/95/18 40/96/18 36/97/18 

vt -8.425 3.35166
vn 0.960564 0.278058 5.61645e-16
vt -9.36059 -0.686014
vt -2.20639 -0.686014
vt -3.14198 3.35166
f 37/98/19 39/99/19 42/100/19 41/101/19 

usemtl Red_Granite
v 58.4662 0 -99.9351
vt -1.55081 -2.39936
vn 0.960564 0.278058 -1.09503e-16
vt -1.62299 -2.01449
vt -6.67862 -2.01449
v 58.2042 0.904768 -61.197
vt -6.71589 -2.21317
v 58.4662 0 -60.9351
vt -6.75081 -2.39936
f 43/102/20 42/103/20 39/104/20 44/105/20 45/106/20 

v 19.4662 0 -99.9351
vt -2.51059 4.52116
vn -2.20577e-19 0.278058 -0.960564
vt -2.58277 5
vt -7.6384 5
vt -7.71059 4.52116
f 46/107/21 40/108/21 42/109/21 43/110/21 

v 19.4662 0 -60.9351
vt 6.71461 4.55176
vn -0.960564 0.278058 2.05738e-17
vt 6.64243 5
vt 1.58679 5
vt 1.51461 4.55176
f 47/111/22 38/112/22 40/113/22 46/114/22 

vt 7.78885 -1.48648
vn 3.49479e-16 0.278058 0.960564
vt 7.75393 -1.25113
vt 7.71667 -1
vt 2.66104 -1
vt 2.58885 -1.48648
f 45/115/23 44/116/23 39/117/23 38/118/23 47/119/23 

usemtl FrontColor
vt 787.698 3913.14
vn -7.61565e-17 1 7.61565e-17
vt 787.698 2420.33
vt 2280.5 2420.33
vt 2280.5 3913.14
f 40/120/24 38/121/24 39/122/24 42/123/24 

usemtl Limestone
vt 10.5932 23.2633
v 48.4662 19 -89.9351
vt 9.69323 22.1547
f 41/124/3 48/125/3 37/85/3

v 29.4662 19 -89.9351
vt 5.89323 22.1547
f 41/124/3 49/126/3 48/125/3

f 49/126/3 41/124/3 36/84/3

f 36/84/3 35/83/3 49/126/3

usemtl Limestone_Big
vt 7.64598 6.97858
vn -0.985887 0.167415 1.42817e-15
v 33.9662 45.5 -75.4351
vt 6.79693 13.0645
v 33.9662 45.5 -85.4351
vt 4.91013 13.0645
vt 4.06108 6.97858
f 35/127/25 50/128/25 51/129/25 49/130/25 

v 48.4662 19 -70.9351
vt 9.13509 4.99667
vn -4.44361e-16 0.167415 0.985887
v 43.9662 45.5 -75.4351
vt 8.28603 11.0826
vt 6.39924 11.0826
vt 5.55018 4.99667
f 52/131/26 53/132/26 50/133/26 35/134/26 

vt -6.87961 10.0688
vn 0.985887 0.167415 4.16707e-18
vt -7.72866 3.98289
vt -4.14376 3.98289
v 43.9662 45.5 -85.4351
vt -4.99282 10.0688
f 53/135/27 52/136/27 48/137/27 54/138/27 

usemtl Limestone
vt 9.69323 17.4743
f 52/139/3 37/85/3 48/125/3

f 35/83/3 37/85/3 52/139/3

usemtl Limestone_Big
vt -5.80062 6.99302
vn -9.09178e-18 0.167415 -0.985887
vt -6.64967 13.0789
vt -8.53646 13.0789
vt -9.38552 6.99302
f 49/140/28 51/141/28 54/142/28 48/143/28 

usemtl FrontColor
vt 1337.25 3363.59
vt 1337.25 2969.89
vt 1730.95 2969.89
vt 1730.95 3363.59
f 51/144/3 50/145/3 53/146/3 54/147/3 

usemtl Limestone_Big
v 38.9662 56.5 -80.4351
vt 5.78553 17.4369
vn -0.910366 0.413803 2.08231e-15
vt 4.84213 14.7011
vt 6.72892 14.7011
f 55/148/29 51/149/29 50/150/29

vt -7.09306 16.4489
vn -7.76982e-18 0.413803 -0.910366
vt -8.03646 13.7131
vt -6.14967 13.7131
f 55/151/30 54/152/30 51/153/30

vt -4.82052 7.71074
vn 0.910366 0.413803 -5.82737e-18
vt -5.76391 10.4465
vt -6.70731 7.71074
f 54/154/31 55/155/31 53/156/31

vt 7.3521 19.1819
vn 2.1231e-15 0.413803 0.910366
vt 6.40871 16.4461
vt 8.2955 16.4461
f 55/157/32 50/158/32 53/159/32

g Mesh3 Model

usemtl HesyRa3
v -1.23941 5.77529e-15 0.133118
vn 0 -1.10934e-18 0.0254
v -0.544729 5.77529e-15 0.133118
vt 1 0
v -0.544729 1.59933 0.133118
vt 1 1
v -1.23941 1.59933 0.133118
vt 0 1
f 56/52/33 57/160/33 58/161/33 59/162/33 

